<svg width="1096" height="436" viewBox="0 0 1096 436" fill="none" xmlns="http://www.w3.org/2000/svg">
<circle cx="156.5" cy="362" r="10" fill="black"/>
<path d="M372.5 177.5C372.5 191.127 367.039 202.008 357.235 210.939C347.255 220.03 332.705 227.132 314.763 232.502C278.877 243.242 231.347 246.5 185.5 246.5C139.64 246.5 94.0331 243.238 60.0713 232.528C43.1069 227.178 29.5177 220.11 20.2387 211.076C11.1218 202.2 6 191.285 6 177.5C6 140.664 28.2716 97.7296 62.4937 63.7582C96.6562 29.8461 141.598 6 185.5 6C229.882 6 276.768 24.7501 312.552 55.7829C348.305 86.7879 372.5 129.613 372.5 177.5Z" fill="url(#paint0_linear_143_11)" stroke="black" stroke-width="12"/>
<path d="M371.768 178.933C372.22 179.162 372.607 179.368 372.935 179.551C372.292 191.995 366.92 202.073 357.735 210.439C347.755 219.53 333.205 226.632 315.263 232.002C279.377 242.742 231.847 246 186 246C140.14 246 94.5331 242.738 60.5713 232.028C43.6069 226.678 30.0177 219.61 20.7387 210.576C12.0291 202.096 6.96555 191.756 6.53056 178.83C6.8512 178.6 7.27184 178.319 7.81174 177.992C10.1454 176.576 13.8161 174.808 18.7904 172.809C28.6771 168.836 42.9722 164.241 60.2364 159.88C94.7644 151.156 140.634 143.5 186 143.5C231.331 143.5 279.07 151.77 315.538 160.823C333.757 165.346 349.05 170.037 359.717 173.933C365.074 175.89 369.13 177.597 371.768 178.933ZM5.65759 179.568C5.65288 179.569 5.68199 179.531 5.75905 179.454C5.70083 179.53 5.6623 179.568 5.65759 179.568ZM374.303 180.415C374.312 180.422 374.316 180.426 374.317 180.427C374.318 180.428 374.313 180.424 374.303 180.415Z" fill="url(#paint1_linear_143_11)" stroke="black" stroke-width="12"/>
<path d="M257.691 189.716C256.193 190.85 255.312 192.621 255.312 194.5V355C255.312 397.41 226.453 430 192.884 430C159.314 430 130.455 397.41 130.455 355V194.5C130.455 192.569 129.525 190.755 127.956 189.628L80.2336 155.339C86.4876 153.992 94.8306 152.331 104.771 150.668C127.723 146.829 159.098 143 192.884 143C226.589 143 256.322 147.435 277.629 151.874C287.014 153.83 294.75 155.782 300.453 157.351L257.691 189.716Z" fill="url(#paint2_linear_143_11)" stroke="black" stroke-width="12" stroke-linejoin="round"/>
<path d="M191.729 436L191.729 193L191.729 44" stroke="black" stroke-width="12"/>
<path d="M226.365 418.5L226.365 178L272 151" stroke="black" stroke-width="12" stroke-linejoin="round"/>
<path d="M157.092 415.5L157.092 177L112 149.5" stroke="black" stroke-width="12" stroke-linejoin="round"/>
<path d="M309 234.5L256.5 203" stroke="black" stroke-width="12"/>
<path d="M357.5 212L256 192" stroke="black" stroke-width="12"/>
<path d="M359.5 173L267 188" stroke="black" stroke-width="12"/>
<path d="M83 237.5L130.5 202.5" stroke="black" stroke-width="12"/>
<path d="M26 215.5L127 195.5" stroke="black" stroke-width="12"/>
<path d="M17.5 172.5L126.5 190.5" stroke="black" stroke-width="12"/>
<path d="M232.5 145V59.5005" stroke="black" stroke-width="12"/>
<path d="M150.5 145V59.5005" stroke="black" stroke-width="12"/>
<path d="M273 152.5V79.0005" stroke="black" stroke-width="12"/>
<path d="M110.5 152.5V79.0005" stroke="black" stroke-width="12"/>
<path d="M304.5 158V122.5" stroke="black" stroke-width="12"/>
<path d="M72.5 158V122.5" stroke="black" stroke-width="12"/>
<circle cx="305" cy="123.5" r="12.5" fill="#6CFFFF" stroke="black" stroke-width="12"/>
<circle cx="274" cy="81.5005" r="12.5" fill="#6CFFFF" stroke="black" stroke-width="12"/>
<circle cx="234" cy="59.5005" r="12.5" fill="#6CFFFF" stroke="black" stroke-width="12"/>
<circle cx="191" cy="43.5005" r="12.5" fill="#6CFFFF" stroke="black" stroke-width="12"/>
<circle cx="150" cy="59.5005" r="12.5" fill="#6CFFFF" stroke="black" stroke-width="12"/>
<circle cx="110" cy="81.5005" r="12.5" fill="#6CFFFF" stroke="black" stroke-width="12"/>
<circle cx="72" cy="123.5" r="12.5" fill="#6CFFFF" stroke="black" stroke-width="12"/>
<path d="M468.078 113.094C460.458 113.094 453.75 111.417 447.953 108.063C442.193 104.672 437.69 99.8599 434.445 93.6255C431.237 87.3547 429.633 79.9354 429.633 71.3677C429.633 62.5448 431.31 55.0161 434.664 48.7817C438.018 42.5109 442.576 37.7166 448.336 34.3989C454.096 31.0812 460.568 29.4224 467.75 29.4224C473.911 29.4224 479.471 30.589 484.43 32.9224C489.424 35.2557 493.508 38.4823 496.68 42.6021C499.888 46.7218 501.857 51.4797 502.586 56.8755H485.141C484.01 53.0474 481.987 50.0578 479.07 47.9067C476.154 45.7192 472.471 44.6255 468.023 44.6255C461.789 44.6255 456.74 46.9406 452.875 51.5708C449.01 56.1646 447.078 62.7088 447.078 71.2036C447.078 79.6984 448.974 86.2791 452.766 90.9458C456.594 95.576 461.753 97.8911 468.242 97.8911C473.93 97.8911 478.396 96.4146 481.641 93.4614C484.922 90.4718 486.617 86.4432 486.727 81.3755H469.281V68.4146H503.406V78.6958C503.406 85.8416 501.893 91.9849 498.867 97.1255C495.841 102.266 491.667 106.222 486.344 108.993C481.021 111.727 474.932 113.094 468.078 113.094ZM518.224 112V50.8599H534.631V61.5786H535.287C536.381 57.7869 538.24 54.925 540.865 52.9927C543.49 51.0239 546.516 50.0396 549.943 50.0396C550.782 50.0396 551.693 50.0942 552.677 50.2036C553.662 50.313 554.519 50.4588 555.248 50.6411V65.6255C554.446 65.3703 553.334 65.1698 551.912 65.0239C550.526 64.8416 549.25 64.7505 548.084 64.7505C544.365 64.7505 541.284 65.9354 538.842 68.3052C536.399 70.6385 535.177 73.6828 535.177 77.438V112H518.224ZM593.855 113.204C587.694 113.204 582.352 111.891 577.832 109.266C573.347 106.605 569.884 102.922 567.441 98.2192C565.035 93.4797 563.832 87.9744 563.832 81.7036C563.832 75.3963 565.035 69.8729 567.441 65.1333C569.884 60.3937 573.347 56.7114 577.832 54.0864C582.352 51.425 587.694 50.0942 593.855 50.0942C600.053 50.0942 605.394 51.425 609.878 54.0864C614.399 56.7114 617.863 60.3937 620.269 65.1333C622.712 69.8729 623.933 75.3963 623.933 81.7036C623.933 87.9744 622.712 93.4797 620.269 98.2192C617.863 102.922 614.399 106.605 609.878 109.266C605.394 111.891 600.053 113.204 593.855 113.204ZM581.058 81.5942C581.058 86.9172 582.134 91.3104 584.285 94.7739C586.436 98.2375 589.644 99.9692 593.91 99.9692C598.139 99.9692 601.329 98.2375 603.48 94.7739C605.631 91.3104 606.707 86.9172 606.707 81.5942C606.707 76.2713 605.631 71.8963 603.48 68.4692C601.329 65.0422 598.139 63.3286 593.91 63.3286C589.644 63.3286 586.436 65.0422 584.285 68.4692C582.134 71.8963 581.058 76.2713 581.058 81.5942ZM676.486 86.0239V50.8599H693.439V112H677.142V100.899H676.486C675.137 104.472 672.858 107.352 669.65 109.54C666.478 111.727 662.595 112.803 658.001 112.766C651.84 112.803 646.845 110.779 643.017 106.696C639.225 102.576 637.329 96.9432 637.329 89.7974V50.8599H654.283V86.8442C654.283 90.4172 655.249 93.2609 657.181 95.3755C659.113 97.4536 661.684 98.4744 664.892 98.438C667.918 98.4744 670.598 97.4354 672.931 95.3208C675.301 93.2062 676.486 90.1073 676.486 86.0239ZM726.194 76.6724V112H709.241V50.8599H725.921V61.7427H726.522C727.908 58.1698 730.114 55.3442 733.14 53.2661C736.166 51.1515 739.939 50.0942 744.46 50.0942C750.84 50.0942 755.944 52.1541 759.772 56.2739C763.637 60.3573 765.569 65.9718 765.569 73.1177V112H748.616V76.1255C748.616 72.3703 747.65 69.4354 745.718 67.3208C743.822 65.2062 741.179 64.1489 737.788 64.1489C734.361 64.1489 731.572 65.2609 729.421 67.4849C727.27 69.6724 726.194 72.7349 726.194 76.6724ZM803.739 112.985C799.072 112.985 794.861 111.782 791.106 109.375C787.351 106.969 784.38 103.433 782.192 98.7661C780.005 94.063 778.911 88.3208 778.911 81.5396C778.911 74.5396 780.041 68.7062 782.302 64.0396C784.562 59.3729 787.57 55.8911 791.325 53.5942C795.08 51.2609 799.182 50.0942 803.63 50.0942C807.057 50.0942 809.919 50.6776 812.216 51.8442C814.513 52.9744 816.372 54.3963 817.794 56.1099C819.216 57.8234 820.291 59.5187 821.02 61.1958H821.513V30.5161H838.466V112H821.786V102.211H821.02C820.255 103.889 819.143 105.566 817.684 107.243C816.226 108.883 814.348 110.25 812.052 111.344C809.791 112.438 807.02 112.985 803.739 112.985ZM821.895 81.4849C821.895 76.0161 820.783 71.6593 818.559 68.4146C816.335 65.1698 813.164 63.5474 809.044 63.5474C804.851 63.5474 801.661 65.2062 799.473 68.5239C797.322 71.8416 796.247 76.1619 796.247 81.4849C796.247 86.7713 797.341 91.1099 799.528 94.5005C801.716 97.8547 804.888 99.5317 809.044 99.5317C813.127 99.5317 816.281 97.8729 818.505 94.5552C820.765 91.2375 821.895 86.8807 821.895 81.4849ZM431.109 256V174.516H463.703C472.672 174.516 479.417 176.485 483.938 180.422C488.458 184.323 490.719 189.318 490.719 195.407C490.719 200.183 489.315 204.066 486.508 207.055C483.737 210.008 480.237 211.959 476.008 212.907V213.727C479.107 213.873 482.005 214.748 484.703 216.352C487.438 217.956 489.643 220.217 491.32 223.133C493.034 226.014 493.891 229.459 493.891 233.469C493.891 237.771 492.833 241.636 490.719 245.063C488.604 248.454 485.469 251.133 481.312 253.102C477.156 255.034 472.016 256 465.891 256H431.109ZM461.078 208.641C464.578 208.641 467.495 207.711 469.828 205.852C472.161 203.993 473.328 201.459 473.328 198.25C473.328 195.334 472.289 192.982 470.211 191.196C468.133 189.373 465.198 188.461 461.406 188.461H448.281V208.641H461.078ZM462.336 241.946C467.148 241.946 470.648 241.016 472.836 239.157C475.06 237.297 476.172 234.836 476.172 231.774C476.172 228.42 474.969 225.667 472.562 223.516C470.156 221.329 466.893 220.235 462.773 220.235H448.281V241.946H462.336ZM507.068 256V194.86H523.474V205.579H524.131C525.224 201.787 527.084 198.925 529.709 196.993C532.334 195.024 535.36 194.04 538.787 194.04C539.625 194.04 540.537 194.094 541.521 194.204C542.506 194.313 543.362 194.459 544.092 194.641V209.625C543.289 209.37 542.177 209.17 540.756 209.024C539.37 208.842 538.094 208.75 536.927 208.75C533.209 208.75 530.128 209.935 527.685 212.305C525.243 214.639 524.021 217.683 524.021 221.438V256H507.068ZM582.972 257.204C576.701 257.204 571.306 255.928 566.785 253.375C562.264 250.823 558.782 247.196 556.339 242.493C553.897 237.753 552.675 232.157 552.675 225.704C552.675 219.433 553.878 213.928 556.285 209.188C558.727 204.448 562.154 200.748 566.566 198.086C570.977 195.425 576.173 194.094 582.152 194.094C587.548 194.094 592.415 195.243 596.753 197.54C601.128 199.836 604.592 203.282 607.144 207.875C609.733 212.469 611.027 218.23 611.027 225.157V229.75H569.355C569.537 234.381 570.886 238.008 573.402 240.633C575.918 243.258 579.199 244.571 583.246 244.571C586.053 244.571 588.459 243.969 590.464 242.766C592.506 241.563 593.964 239.813 594.839 237.516L610.48 238.555C609.277 244.17 606.269 248.691 601.457 252.118C596.681 255.508 590.519 257.204 582.972 257.204ZM569.464 219.305H594.785C594.384 215.441 593.144 212.378 591.066 210.118C588.988 207.857 586.071 206.727 582.316 206.727C578.524 206.727 575.516 207.912 573.293 210.282C571.105 212.615 569.829 215.623 569.464 219.305ZM641.868 257.149C636.035 257.149 631.186 255.636 627.322 252.61C623.493 249.547 621.579 244.99 621.579 238.938C621.579 234.381 622.637 230.808 624.751 228.219C626.902 225.594 629.728 223.68 633.228 222.477C636.728 221.237 640.483 220.435 644.493 220.071C649.816 219.56 653.608 219.032 655.868 218.485C658.165 217.902 659.314 216.625 659.314 214.657V214.383C659.314 211.868 658.512 209.917 656.908 208.532C655.303 207.146 652.988 206.454 649.962 206.454C646.936 206.454 644.457 207.11 642.525 208.422C640.629 209.735 639.371 211.412 638.751 213.454L623.329 210.993C624.788 205.67 627.85 201.532 632.517 198.579C637.22 195.589 643.053 194.094 650.017 194.094C654.538 194.094 658.785 194.805 662.759 196.227C666.769 197.649 670.014 199.891 672.493 202.954C674.973 205.98 676.212 209.917 676.212 214.766V256H660.189V247.469H659.697C658.202 250.349 655.978 252.683 653.025 254.469C650.108 256.256 646.389 257.149 641.868 257.149ZM637.712 238.391C637.712 240.724 638.551 242.493 640.228 243.696C641.941 244.862 644.092 245.446 646.681 245.446C650.4 245.446 653.444 244.37 655.814 242.219C658.22 240.068 659.423 237.389 659.423 234.18V227.672C658.767 228.11 657.728 228.511 656.306 228.875C654.921 229.24 653.444 229.55 651.876 229.805C650.309 230.024 648.905 230.224 647.665 230.407C644.676 230.844 642.269 231.701 640.447 232.977C638.624 234.217 637.712 236.021 637.712 238.391ZM692.069 174.516H709.022V218.102H709.952L729.476 194.86H748.944L726.304 221.383L750.038 256H730.241L713.616 231.336L709.022 236.532V256H692.069V174.516ZM759.497 256V194.86H776.45V256H759.497ZM767.973 187.04C765.458 187.04 763.289 186.201 761.466 184.524C759.679 182.847 758.786 180.823 758.786 178.454C758.786 176.084 759.679 174.079 761.466 172.438C763.289 170.761 765.458 169.922 767.973 169.922C770.489 169.922 772.64 170.761 774.427 172.438C776.249 174.079 777.161 176.084 777.161 178.454C777.161 180.823 776.249 182.847 774.427 184.524C772.64 186.201 770.489 187.04 767.973 187.04ZM809.206 220.672V256H792.253V194.86H808.932V205.743H809.534C810.919 202.17 813.125 199.344 816.151 197.266C819.177 195.152 822.95 194.094 827.471 194.094C833.851 194.094 838.956 196.154 842.784 200.274C846.648 204.357 848.581 209.972 848.581 217.118V256H831.628V220.125C831.628 216.37 830.661 213.435 828.729 211.321C826.833 209.206 824.19 208.149 820.799 208.149C817.372 208.149 814.583 209.261 812.432 211.485C810.281 213.672 809.206 216.735 809.206 220.672ZM891.782 280.172C883.542 280.172 877.071 278.532 872.367 275.25C867.701 272.006 864.875 267.959 863.891 263.11L879.532 261.032C880.224 262.891 881.555 264.514 883.524 265.899C885.529 267.284 888.409 267.977 892.164 267.977C895.847 267.977 898.891 267.084 901.297 265.297C903.703 263.547 904.907 260.576 904.907 256.383V245.172H904.141C903.047 247.724 901.078 250.021 898.235 252.063C895.427 254.105 891.581 255.125 886.696 255.125C882.138 255.125 877.982 254.068 874.227 251.954C870.472 249.803 867.482 246.521 865.258 242.11C863.034 237.698 861.922 232.12 861.922 225.375C861.922 218.412 863.052 212.615 865.313 207.985C867.61 203.355 870.636 199.891 874.391 197.594C878.146 195.261 882.266 194.094 886.75 194.094C890.141 194.094 893.003 194.678 895.336 195.844C897.67 196.974 899.547 198.396 900.969 200.11C902.427 201.823 903.539 203.519 904.305 205.196H904.961V194.86H921.586V256.657C921.586 261.834 920.31 266.172 917.758 269.672C915.206 273.172 911.688 275.797 907.203 277.547C902.756 279.297 897.615 280.172 891.782 280.172ZM879.258 225.266C879.258 230.516 880.352 234.691 882.539 237.79C884.763 240.852 887.953 242.383 892.11 242.383C896.193 242.383 899.347 240.87 901.571 237.844C903.831 234.818 904.961 230.625 904.961 225.266C904.961 219.907 903.849 215.623 901.625 212.415C899.401 209.17 896.229 207.547 892.11 207.547C887.917 207.547 884.727 209.206 882.539 212.524C880.352 215.805 879.258 220.053 879.258 225.266ZM431.109 318.516H452.328L474.75 373.258H475.68L498.156 318.516H519.539V400H502.641V346.954H502.039L480.875 399.618H469.445L448.5 346.844H447.789V400H431.109V318.516ZM574.771 374.024V338.86H591.724V400H575.427V388.899H574.771C573.422 392.472 571.144 395.352 567.935 397.54C564.763 399.727 560.881 400.803 556.287 400.766C550.125 400.803 545.131 398.779 541.302 394.696C537.511 390.576 535.615 384.943 535.615 377.797V338.86H552.568V374.844C552.568 378.417 553.534 381.261 555.467 383.375C557.399 385.454 559.969 386.474 563.177 386.438C566.204 386.474 568.883 385.435 571.217 383.321C573.586 381.206 574.771 378.107 574.771 374.024ZM658.277 356.305L642.855 357.235C642.417 355.303 641.324 353.644 639.574 352.258C637.86 350.836 635.527 350.125 632.574 350.125C629.949 350.125 627.743 350.672 625.957 351.766C624.17 352.86 623.277 354.318 623.277 356.141C623.277 357.599 623.86 358.839 625.027 359.86C626.194 360.881 628.181 361.701 630.988 362.321L642.089 364.508C653.829 366.842 659.699 372.347 659.699 381.024C659.699 385.071 658.532 388.607 656.199 391.633C653.865 394.659 650.657 397.011 646.574 398.688C642.49 400.365 637.806 401.204 632.519 401.204C624.425 401.204 617.99 399.527 613.214 396.172C608.438 392.782 605.631 388.17 604.792 382.336L621.417 381.461C622.548 386.493 626.266 389.008 632.574 389.008C635.527 389.008 637.915 388.425 639.738 387.258C641.561 386.092 642.472 384.615 642.472 382.829C642.472 379.803 639.865 377.761 634.652 376.704L624.097 374.516C612.321 372.146 606.433 366.349 606.433 357.125C606.433 351.219 608.785 346.571 613.488 343.18C618.227 339.79 624.498 338.094 632.3 338.094C640.029 338.094 646.118 339.735 650.566 343.016C655.014 346.261 657.584 350.691 658.277 356.305ZM689.611 364.672V400H672.658V318.516H689.064V349.743H689.829C691.215 346.133 693.439 343.29 696.501 341.211C699.6 339.133 703.465 338.094 708.095 338.094C714.439 338.094 719.543 340.136 723.408 344.219C727.272 348.303 729.204 353.935 729.204 361.118V400H712.306V364.125C712.306 360.334 711.358 357.399 709.462 355.321C707.566 353.206 704.85 352.149 701.314 352.149C697.887 352.149 695.079 353.261 692.892 355.485C690.704 357.672 689.611 360.735 689.611 364.672ZM745.007 400V338.86H761.413V349.579H762.069C763.163 345.787 765.022 342.925 767.647 340.993C770.272 339.024 773.299 338.04 776.726 338.04C777.564 338.04 778.476 338.094 779.46 338.204C780.444 338.313 781.301 338.459 782.03 338.641V353.625C781.228 353.37 780.116 353.17 778.694 353.024C777.309 352.842 776.033 352.75 774.866 352.75C771.147 352.75 768.067 353.935 765.624 356.305C763.181 358.639 761.96 361.683 761.96 365.438V400H745.007ZM820.638 401.204C814.476 401.204 809.135 399.891 804.614 397.266C800.13 394.605 796.666 390.922 794.223 386.219C791.817 381.48 790.614 375.974 790.614 369.704C790.614 363.396 791.817 357.873 794.223 353.133C796.666 348.394 800.13 344.711 804.614 342.086C809.135 339.425 814.476 338.094 820.638 338.094C826.835 338.094 832.177 339.425 836.661 342.086C841.182 344.711 844.645 348.394 847.052 353.133C849.494 357.873 850.716 363.396 850.716 369.704C850.716 375.974 849.494 381.48 847.052 386.219C844.645 390.922 841.182 394.605 836.661 397.266C832.177 399.891 826.835 401.204 820.638 401.204ZM807.841 369.594C807.841 374.917 808.916 379.31 811.067 382.774C813.218 386.237 816.427 387.969 820.692 387.969C824.921 387.969 828.111 386.237 830.263 382.774C832.414 379.31 833.489 374.917 833.489 369.594C833.489 364.271 832.414 359.896 830.263 356.469C828.111 353.042 824.921 351.329 820.692 351.329C816.427 351.329 813.218 353.042 811.067 356.469C808.916 359.896 807.841 364.271 807.841 369.594ZM891.674 401.204C885.513 401.204 880.172 399.891 875.651 397.266C871.167 394.605 867.703 390.922 865.26 386.219C862.854 381.48 861.651 375.974 861.651 369.704C861.651 363.396 862.854 357.873 865.26 353.133C867.703 348.394 871.167 344.711 875.651 342.086C880.172 339.425 885.513 338.094 891.674 338.094C897.872 338.094 903.213 339.425 907.698 342.086C912.219 344.711 915.682 348.394 918.088 353.133C920.531 357.873 921.753 363.396 921.753 369.704C921.753 375.974 920.531 381.48 918.088 386.219C915.682 390.922 912.219 394.605 907.698 397.266C903.213 399.891 897.872 401.204 891.674 401.204ZM878.878 369.594C878.878 374.917 879.953 379.31 882.104 382.774C884.255 386.237 887.463 387.969 891.729 387.969C895.958 387.969 899.148 386.237 901.299 382.774C903.45 379.31 904.526 374.917 904.526 369.594C904.526 364.271 903.45 359.896 901.299 356.469C899.148 353.042 895.958 351.329 891.729 351.329C887.463 351.329 884.255 353.042 882.104 356.469C879.953 359.896 878.878 364.271 878.878 369.594ZM935.149 400V338.86H951.227V349.743H951.992C953.269 346.133 955.401 343.29 958.391 341.211C961.381 339.133 964.935 338.094 969.055 338.094C973.248 338.094 976.802 339.152 979.719 341.266C982.672 343.344 984.623 346.17 985.571 349.743H986.227C987.503 346.206 989.763 343.381 993.008 341.266C996.289 339.152 1000.17 338.094 1004.66 338.094C1010.34 338.094 1014.97 339.899 1018.55 343.508C1022.16 347.118 1023.96 352.24 1023.96 358.875V400H1007.01V362.266C1007.01 358.839 1006.1 356.287 1004.27 354.61C1002.49 352.933 1000.25 352.094 997.547 352.094C994.485 352.094 992.078 353.079 990.328 355.047C988.615 356.98 987.758 359.532 987.758 362.704V400H971.297V361.829C971.297 358.875 970.44 356.524 968.727 354.774C967.05 352.987 964.826 352.094 962.055 352.094C959.211 352.094 956.841 353.133 954.946 355.211C953.05 357.253 952.102 359.969 952.102 363.36V400H935.149ZM1090.51 356.305L1075.09 357.235C1074.65 355.303 1073.56 353.644 1071.81 352.258C1070.1 350.836 1067.76 350.125 1064.81 350.125C1062.19 350.125 1059.98 350.672 1058.19 351.766C1056.41 352.86 1055.51 354.318 1055.51 356.141C1055.51 357.599 1056.1 358.839 1057.26 359.86C1058.43 360.881 1060.42 361.701 1063.22 362.321L1074.33 364.508C1086.07 366.842 1091.94 372.347 1091.94 381.024C1091.94 385.071 1090.77 388.607 1088.44 391.633C1086.1 394.659 1082.89 397.011 1078.81 398.688C1074.73 400.365 1070.04 401.204 1064.76 401.204C1056.66 401.204 1050.23 399.527 1045.45 396.172C1040.68 392.782 1037.87 388.17 1037.03 382.336L1053.65 381.461C1054.78 386.493 1058.5 389.008 1064.81 389.008C1067.76 389.008 1070.15 388.425 1071.97 387.258C1073.8 386.092 1074.71 384.615 1074.71 382.829C1074.71 379.803 1072.1 377.761 1066.89 376.704L1056.33 374.516C1044.56 372.146 1038.67 366.349 1038.67 357.125C1038.67 351.219 1041.02 346.571 1045.72 343.18C1050.46 339.79 1056.74 338.094 1064.54 338.094C1072.27 338.094 1078.35 339.735 1082.8 343.016C1087.25 346.261 1089.82 350.691 1090.51 356.305Z" fill="black"/>
<defs>
<linearGradient id="paint0_linear_143_11" x1="189.25" y1="0" x2="189.25" y2="252.5" gradientUnits="userSpaceOnUse">
<stop stop-color="white"/>
<stop offset="1" stop-color="#6CFFFF"/>
</linearGradient>
<linearGradient id="paint1_linear_143_11" x1="189.75" y1="137.5" x2="189.75" y2="252" gradientUnits="userSpaceOnUse">
<stop stop-color="white"/>
<stop offset="1" stop-color="#6CFFFF"/>
</linearGradient>
<linearGradient id="paint2_linear_143_11" x1="189.75" y1="137" x2="189.75" y2="436" gradientUnits="userSpaceOnUse">
<stop stop-color="#6CFFFF"/>
<stop offset="1" stop-color="#4AB5B5"/>
</linearGradient>
</defs>
</svg>
