<svg width="1232" height="436" viewBox="0 0 1232 436" fill="none" xmlns="http://www.w3.org/2000/svg">
<circle cx="156.5" cy="362" r="10" fill="black"/>
<path d="M372.5 177.5C372.5 191.127 367.039 202.008 357.235 210.939C347.255 220.029 332.705 227.132 314.763 232.501C278.877 243.241 231.347 246.5 185.5 246.5C139.64 246.5 94.0331 243.238 60.0713 232.527C43.1069 227.177 29.5177 220.11 20.2387 211.076C11.1218 202.199 6 191.285 6 177.5C6 140.664 28.2716 97.7292 62.4937 63.7577C96.6562 29.8456 141.598 5.99951 185.5 5.99951C229.882 5.99951 276.768 24.7496 312.552 55.7824C348.305 86.7874 372.5 129.612 372.5 177.5Z" fill="url(#paint0_linear_153_6)" stroke="black" stroke-width="12"/>
<path d="M371.768 178.932C372.22 179.161 372.607 179.368 372.935 179.551C372.292 191.994 366.92 202.072 357.735 210.439C347.755 219.529 333.205 226.632 315.263 232.001C279.377 242.741 231.847 246 186 246C140.14 246 94.5331 242.738 60.5713 232.027C43.6069 226.677 30.0177 219.61 20.7387 210.576C12.0291 202.096 6.96555 191.756 6.53056 178.83C6.8512 178.599 7.27184 178.319 7.81174 177.991C10.1454 176.575 13.8161 174.808 18.7904 172.809C28.6771 168.836 42.9722 164.241 60.2364 159.879C94.7644 151.156 140.634 143.5 186 143.5C231.331 143.5 279.07 151.769 315.538 160.823C333.757 165.346 349.05 170.037 359.717 173.932C365.074 175.889 369.13 177.596 371.768 178.932ZM5.65759 179.568C5.65288 179.568 5.68199 179.53 5.75905 179.454C5.70083 179.529 5.6623 179.567 5.65759 179.568ZM374.303 180.415C374.312 180.422 374.316 180.426 374.317 180.427C374.318 180.427 374.313 180.423 374.303 180.415Z" fill="url(#paint1_linear_153_6)" stroke="black" stroke-width="12"/>
<path d="M257.691 189.716C256.193 190.85 255.312 192.621 255.312 194.5V355C255.312 397.41 226.453 430 192.884 430C159.314 430 130.455 397.41 130.455 355V194.5C130.455 192.568 129.525 190.755 127.956 189.627L80.2336 155.339C86.4876 153.992 94.8306 152.33 104.771 150.668C127.723 146.829 159.098 143 192.884 143C226.589 143 256.322 147.435 277.629 151.874C287.014 153.829 294.75 155.782 300.453 157.35L257.691 189.716Z" fill="url(#paint2_linear_153_6)" stroke="black" stroke-width="12" stroke-linejoin="round"/>
<path d="M191.729 436L191.729 193L191.729 43.9995" stroke="black" stroke-width="12"/>
<path d="M226.365 418.5L226.365 177.999L272 151" stroke="black" stroke-width="12" stroke-linejoin="round"/>
<path d="M157.092 415.5L157.092 177L112 149.5" stroke="black" stroke-width="12" stroke-linejoin="round"/>
<path d="M309 234.5L256.5 203" stroke="black" stroke-width="12"/>
<path d="M357.5 212L256 192" stroke="black" stroke-width="12"/>
<path d="M359.5 173L267 188" stroke="black" stroke-width="12"/>
<path d="M83 237.5L130.5 202.5" stroke="black" stroke-width="12"/>
<path d="M26 215.5L127 195.5" stroke="black" stroke-width="12"/>
<path d="M17.5 172.5L126.5 190.5" stroke="black" stroke-width="12"/>
<path d="M232.5 145V59.5" stroke="black" stroke-width="12"/>
<path d="M150.5 145V59.5" stroke="black" stroke-width="12"/>
<path d="M273 152.5V79" stroke="black" stroke-width="12"/>
<path d="M110.5 152.5V79" stroke="black" stroke-width="12"/>
<path d="M304.5 158V122.5" stroke="black" stroke-width="12"/>
<path d="M72.5 158V122.5" stroke="black" stroke-width="12"/>
<circle cx="305" cy="123.5" r="12.5" fill="#6CFFFF" stroke="black" stroke-width="12"/>
<circle cx="274" cy="81.5" r="12.5" fill="#6CFFFF" stroke="black" stroke-width="12"/>
<circle cx="234" cy="59.5" r="12.5" fill="#6CFFFF" stroke="black" stroke-width="12"/>
<circle cx="191" cy="43.5" r="12.5" fill="#6CFFFF" stroke="black" stroke-width="12"/>
<circle cx="150" cy="59.5" r="12.5" fill="#6CFFFF" stroke="black" stroke-width="12"/>
<circle cx="110" cy="81.5" r="12.5" fill="#6CFFFF" stroke="black" stroke-width="12"/>
<circle cx="72" cy="123.5" r="12.5" fill="#6CFFFF" stroke="black" stroke-width="12"/>
<path d="M477.324 150.09C469.103 150.09 461.649 148.139 454.961 144.238C448.273 140.337 442.978 135.042 439.077 128.354C435.176 121.666 433.225 114.072 433.225 105.573C433.225 97.0737 435.106 89.5497 438.868 83.001C442.769 76.313 448.134 71.0183 454.961 67.117C461.788 63.2157 469.521 61.265 478.16 61.265C484.291 61.265 489.794 62.0313 494.671 63.564C499.687 65.0967 504.285 67.535 508.465 70.879C510.694 72.6903 511.809 75.059 511.809 77.985C511.809 80.3537 510.973 82.374 509.301 84.046C507.629 85.718 505.609 86.554 503.24 86.554C501.707 86.554 499.966 85.927 498.015 84.673C494.95 82.7223 491.815 81.1897 488.61 80.075C485.405 78.821 481.992 78.194 478.369 78.194C470.706 78.194 464.366 80.7717 459.35 85.927C454.473 90.943 452.035 97.4917 452.035 105.573C452.035 113.933 454.404 120.621 459.141 125.637C463.878 130.653 469.939 133.161 477.324 133.161C484.151 133.161 489.725 131.837 494.044 129.19C498.503 126.403 500.732 122.85 500.732 118.531C500.732 117.416 500.244 116.859 499.269 116.859H485.266C482.619 116.859 480.459 116.093 478.787 114.56C477.254 113.027 476.488 111.007 476.488 108.499C476.488 106.13 477.254 104.18 478.787 102.647C480.459 101.114 482.619 100.348 485.266 100.348H508.256C512.018 100.348 514.735 101.254 516.407 103.065C518.079 104.737 518.915 107.593 518.915 111.634C518.915 123.338 515.083 132.673 507.42 139.64C499.896 146.607 489.864 150.09 477.324 150.09ZM546.077 149.463C543.43 149.463 541.2 148.697 539.389 147.164C537.578 145.631 536.672 143.681 536.672 141.312V94.496C536.672 92.2667 537.508 90.3857 539.18 88.853C540.991 87.181 543.29 86.345 546.077 86.345C548.585 86.345 550.605 87.1113 552.138 88.644C553.81 90.0373 554.785 91.779 555.064 93.869C556.597 91.5003 558.687 89.48 561.334 87.808C563.981 86.136 566.768 85.3 569.694 85.3C571.505 85.3 573.247 85.509 574.919 85.927C576.87 86.4843 578.472 87.599 579.726 89.271C580.98 90.8037 581.607 92.615 581.607 94.705C581.607 97.631 580.632 100.069 578.681 102.02C576.87 103.831 574.71 104.458 572.202 103.901C570.391 103.483 568.579 103.274 566.768 103.274C563.563 103.274 560.916 104.389 558.826 106.618C556.736 108.847 555.482 113.376 555.064 120.203V141.103C555.064 143.472 554.158 145.492 552.347 147.164C550.675 148.697 548.585 149.463 546.077 149.463ZM621.944 150.09C615.953 150.09 610.449 148.697 605.433 145.91C600.417 143.123 596.376 139.292 593.311 134.415C590.385 129.399 588.922 123.756 588.922 117.486C588.922 111.077 590.385 105.503 593.311 100.766C596.376 95.8893 600.417 92.1273 605.433 89.48C610.449 86.6933 615.953 85.3 621.944 85.3C628.075 85.3 633.578 86.6933 638.455 89.48C643.471 92.1273 647.442 95.8893 650.368 100.766C653.294 105.503 654.757 111.077 654.757 117.486C654.757 123.756 653.294 129.399 650.368 134.415C647.442 139.292 643.471 143.123 638.455 145.91C633.578 148.697 628.075 150.09 621.944 150.09ZM621.944 133.161C626.263 133.161 629.747 131.698 632.394 128.772C635.181 125.707 636.574 121.945 636.574 117.486C636.574 112.888 635.181 109.196 632.394 106.409C629.747 103.622 626.263 102.229 621.944 102.229C617.764 102.229 614.211 103.622 611.285 106.409C608.498 109.196 607.105 112.888 607.105 117.486C607.105 121.945 608.498 125.707 611.285 128.772C614.211 131.698 617.764 133.161 621.944 133.161ZM712.748 94.287C712.748 91.6397 713.584 89.48 715.256 87.808C717.067 86.136 719.296 85.3 721.944 85.3C724.591 85.3 726.751 86.2057 728.423 88.017C730.234 89.689 731.14 91.779 731.14 94.287V123.756C731.14 129.469 729.677 134.345 726.751 138.386C723.825 142.287 720.063 145.213 715.465 147.164C710.867 149.115 705.99 150.09 700.835 150.09C695.819 150.09 691.012 149.115 686.414 147.164C681.816 145.213 677.984 142.287 674.919 138.386C671.993 134.345 670.53 129.469 670.53 123.756V94.287C670.53 91.6397 671.366 89.48 673.038 87.808C674.849 86.136 677.078 85.3 679.726 85.3C682.373 85.3 684.533 86.2057 686.205 88.017C688.016 89.689 688.922 91.779 688.922 94.287V122.92C688.922 125.846 690.036 128.284 692.266 130.235C694.495 132.186 697.351 133.161 700.835 133.161C704.318 133.161 707.174 132.186 709.404 130.235C711.633 128.284 712.748 125.846 712.748 122.92V94.287ZM803.527 150.09C800.88 150.09 798.651 149.324 796.839 147.791C795.167 146.258 794.331 144.308 794.331 141.939V116.441C794.331 111.286 793.147 107.593 790.778 105.364C788.549 103.135 785.762 102.02 782.418 102.02C778.935 102.02 776.009 103.135 773.64 105.364C771.411 107.593 770.018 110.171 769.46 113.097V141.103C769.46 143.472 768.555 145.492 766.743 147.164C765.071 148.697 762.981 149.463 760.473 149.463C757.826 149.463 755.597 148.697 753.785 147.164C751.974 145.631 751.068 143.681 751.068 141.312V94.496C751.068 92.2667 751.904 90.3857 753.576 88.853C755.388 87.181 757.687 86.345 760.473 86.345C762.703 86.345 764.584 86.972 766.116 88.226C767.649 89.3407 768.694 90.8037 769.251 92.615C773.013 87.7383 778.726 85.3 786.389 85.3C794.192 85.3 800.532 87.599 805.408 92.197C810.285 96.795 812.723 104.11 812.723 114.142V142.357C812.723 144.586 811.818 146.467 810.006 148C808.334 149.393 806.175 150.09 803.527 150.09ZM859.355 150.09C850.019 150.09 842.495 147.164 836.783 141.312C831.209 135.321 828.423 127.379 828.423 117.486C828.423 107.593 831.14 99.7907 836.574 94.078C842.147 88.226 849.532 85.3 858.728 85.3C864.719 85.3 870.083 87.4597 874.821 91.779V64.4C874.821 62.0313 875.657 60.0807 877.329 58.548C879.001 56.876 881.16 56.04 883.808 56.04C886.594 56.04 888.824 56.876 890.496 58.548C892.307 60.0807 893.213 61.9617 893.213 64.191V141.939C893.213 144.308 892.307 146.258 890.496 147.791C888.824 149.324 886.594 150.09 883.808 150.09C879.349 150.09 876.493 148.139 875.239 144.238C870.919 148.139 865.625 150.09 859.355 150.09ZM860.818 133.161C864.998 133.161 868.342 131.698 870.85 128.772C873.497 125.707 874.821 121.945 874.821 117.486C874.821 112.888 873.497 109.196 870.85 106.409C868.342 103.622 864.998 102.229 860.818 102.229C856.498 102.229 853.015 103.622 850.368 106.409C847.86 109.196 846.606 112.888 846.606 117.486C846.606 121.945 847.86 125.707 850.368 128.772C853.015 131.698 856.498 133.161 860.818 133.161ZM450.99 282C447.089 282 443.814 280.746 441.167 278.238C438.659 275.591 437.405 272.316 437.405 268.415V210.313C437.405 206.69 438.659 203.625 441.167 201.117C443.675 198.609 446.74 197.355 450.363 197.355H470.427C478.23 197.355 484.5 199.515 489.237 203.834C493.974 208.014 496.343 213.169 496.343 219.3C496.343 225.849 494.183 231.074 489.864 234.975C497.388 238.876 501.15 245.564 501.15 255.039C501.15 262.981 498.572 269.46 493.417 274.476C488.262 279.492 481.365 282 472.726 282H450.99ZM458.932 265.28H473.562C476.349 265.28 478.648 264.444 480.459 262.772C482.41 261.1 483.385 258.662 483.385 255.457C483.385 252.252 482.479 249.814 480.668 248.142C478.857 246.47 476.488 245.634 473.562 245.634H458.932C456.842 245.634 455.797 246.679 455.797 248.769V262.145C455.797 264.235 456.842 265.28 458.932 265.28ZM458.932 229.75H470.427C472.935 229.75 474.886 228.914 476.279 227.242C477.672 225.57 478.369 223.759 478.369 221.808C478.369 219.857 477.672 218.116 476.279 216.583C474.886 214.911 472.935 214.075 470.427 214.075H458.932C456.842 214.075 455.797 215.12 455.797 217.21V226.615C455.797 228.705 456.842 229.75 458.932 229.75ZM528.32 283.463C525.673 283.463 523.443 282.697 521.632 281.164C519.821 279.631 518.915 277.681 518.915 275.312V228.496C518.915 226.267 519.751 224.386 521.423 222.853C523.234 221.181 525.533 220.345 528.32 220.345C530.828 220.345 532.848 221.111 534.381 222.644C536.053 224.037 537.028 225.779 537.307 227.869C538.84 225.5 540.93 223.48 543.577 221.808C546.224 220.136 549.011 219.3 551.937 219.3C553.748 219.3 555.49 219.509 557.162 219.927C559.113 220.484 560.715 221.599 561.969 223.271C563.223 224.804 563.85 226.615 563.85 228.705C563.85 231.631 562.875 234.069 560.924 236.02C559.113 237.831 556.953 238.458 554.445 237.901C552.634 237.483 550.822 237.274 549.011 237.274C545.806 237.274 543.159 238.389 541.069 240.618C538.979 242.847 537.725 247.376 537.307 254.203V275.103C537.307 277.472 536.401 279.492 534.59 281.164C532.918 282.697 530.828 283.463 528.32 283.463ZM604.814 284.09C595.339 284.09 587.328 281.303 580.779 275.73C574.37 270.017 571.165 262.215 571.165 252.322C571.165 242.011 574.3 233.93 580.57 228.078C586.979 222.226 594.991 219.3 604.605 219.3C611.432 219.3 617.075 220.554 621.534 223.062C625.993 225.57 629.337 228.775 631.566 232.676C633.795 236.577 634.91 240.688 634.91 245.007C634.91 252.252 631.705 255.875 625.296 255.875H590.602C589.487 255.875 588.93 256.572 588.93 257.965C588.93 261.17 590.672 263.747 594.155 265.698C597.778 267.509 601.818 268.415 606.277 268.415C609.064 268.415 611.85 268.067 614.637 267.37C617.424 266.534 619.862 265.35 621.952 263.817C623.345 262.842 624.808 262.354 626.341 262.354C628.431 262.354 630.173 263.12 631.566 264.653C633.099 266.186 633.865 267.997 633.865 270.087C633.865 272.595 632.541 274.964 629.894 277.193C627.386 279.283 623.694 280.955 618.817 282.209C614.08 283.463 609.412 284.09 604.814 284.09ZM615.682 243.753C615.961 243.753 616.309 243.683 616.727 243.544C617.284 243.405 617.563 242.917 617.563 242.081C617.563 239.991 616.239 238.11 613.592 236.438C611.084 234.627 607.81 233.721 603.769 233.721C599.45 233.721 595.897 234.696 593.11 236.647C590.463 238.458 589.139 240.339 589.139 242.29C589.139 243.265 589.696 243.753 590.811 243.753H615.682ZM680.784 284.09C671.449 284.09 663.855 281.164 658.003 275.312C652.29 269.321 649.434 261.379 649.434 251.486C649.434 241.593 652.221 233.791 657.794 228.078C663.507 222.226 670.961 219.3 680.157 219.3C686.706 219.3 692.418 221.599 697.295 226.197C697.852 224.525 698.897 223.132 700.43 222.017C701.963 220.902 703.774 220.345 705.864 220.345C708.651 220.345 710.88 221.181 712.552 222.853C714.363 224.386 715.269 226.267 715.269 228.496V275.939C715.269 278.308 714.363 280.258 712.552 281.791C710.88 283.324 708.651 284.09 705.864 284.09C701.266 284.09 698.41 282.07 697.295 278.029C692.836 282.07 687.333 284.09 680.784 284.09ZM682.247 267.161C686.706 267.161 690.259 265.698 692.906 262.772C695.553 259.707 696.877 255.945 696.877 251.486C696.877 246.888 695.553 243.196 692.906 240.409C690.259 237.622 686.706 236.229 682.247 236.229C677.928 236.229 674.375 237.622 671.588 240.409C668.941 243.196 667.617 246.888 667.617 251.486C667.617 255.945 668.941 259.707 671.588 262.772C674.375 265.698 677.928 267.161 682.247 267.161ZM744.553 284.09C741.906 284.09 739.677 283.324 737.865 281.791C736.054 280.258 735.148 278.308 735.148 275.939V198.191C735.148 195.962 735.984 194.081 737.656 192.548C739.468 190.876 741.767 190.04 744.553 190.04C747.201 190.04 749.36 190.876 751.032 192.548C752.704 194.081 753.54 196.031 753.54 198.4V234.348C753.54 236.02 754.028 236.856 755.003 236.856C755.282 236.856 755.839 236.577 756.675 236.02L776.948 220.972C778.62 219.857 780.432 219.3 782.382 219.3C784.751 219.3 786.702 220.136 788.234 221.808C789.767 223.48 790.533 225.431 790.533 227.66C790.533 230.725 789.14 233.164 786.353 234.975L769.842 245.843C768.449 246.818 767.752 247.863 767.752 248.978C767.752 250.093 768.31 250.998 769.424 251.695L788.443 268.833C789.697 269.808 790.533 270.923 790.951 272.177C791.369 273.431 791.578 274.615 791.578 275.73C791.578 277.959 790.673 279.91 788.861 281.582C787.189 283.254 785.169 284.09 782.8 284.09C780.432 284.09 778.342 283.184 776.53 281.373L756.048 261.309C755.63 260.891 755.143 260.682 754.585 260.682C753.889 260.682 753.54 261.239 753.54 262.354V275.73C753.54 278.099 752.635 280.119 750.823 281.791C749.151 283.324 747.061 284.09 744.553 284.09ZM815.888 284.09C813.24 284.09 811.011 283.324 809.2 281.791C807.388 280.258 806.483 278.308 806.483 275.939V228.496C806.483 226.267 807.319 224.386 808.991 222.853C810.802 221.181 813.101 220.345 815.888 220.345C818.674 220.345 820.834 221.181 822.367 222.853C824.039 224.386 824.875 226.336 824.875 228.705V275.73C824.875 278.099 823.969 280.119 822.158 281.791C820.486 283.324 818.396 284.09 815.888 284.09ZM815.888 209.895C812.962 209.895 810.454 208.989 808.364 207.178C806.274 205.227 805.229 202.789 805.229 199.863C805.229 197.216 806.274 194.917 808.364 192.966C810.454 191.015 812.962 190.04 815.888 190.04C818.674 190.04 821.043 191.015 822.994 192.966C825.084 194.917 826.129 197.216 826.129 199.863C826.129 202.789 825.084 205.227 822.994 207.178C821.043 208.989 818.674 209.895 815.888 209.895ZM898.426 284.09C895.779 284.09 893.55 283.324 891.738 281.791C890.066 280.258 889.23 278.308 889.23 275.939V250.441C889.23 245.286 888.046 241.593 885.677 239.364C883.448 237.135 880.661 236.02 877.317 236.02C873.834 236.02 870.908 237.135 868.539 239.364C866.31 241.593 864.917 244.171 864.359 247.097V275.103C864.359 277.472 863.454 279.492 861.642 281.164C859.97 282.697 857.88 283.463 855.372 283.463C852.725 283.463 850.496 282.697 848.684 281.164C846.873 279.631 845.967 277.681 845.967 275.312V228.496C845.967 226.267 846.803 224.386 848.475 222.853C850.287 221.181 852.586 220.345 855.372 220.345C857.602 220.345 859.483 220.972 861.015 222.226C862.548 223.341 863.593 224.804 864.15 226.615C867.912 221.738 873.625 219.3 881.288 219.3C889.091 219.3 895.431 221.599 900.307 226.197C905.184 230.795 907.622 238.11 907.622 248.142V276.357C907.622 278.586 906.717 280.467 904.905 282C903.233 283.393 901.074 284.09 898.426 284.09ZM953.836 312.305C949.935 312.305 946.173 311.887 942.55 311.051C938.927 310.354 935.653 309.24 932.727 307.707C929.383 305.896 927.711 303.109 927.711 299.347C927.711 296.978 928.547 294.888 930.219 293.077C931.891 291.405 933.842 290.569 936.071 290.569C937.882 290.569 939.485 290.987 940.878 291.823C943.107 293.077 945.406 293.983 947.775 294.54C950.283 295.097 952.721 295.376 955.09 295.376C960.385 295.376 964.286 294.192 966.794 291.823C969.441 289.454 970.765 286.319 970.765 282.418V277.611C966.306 281.93 960.803 284.09 954.254 284.09C944.919 284.09 937.395 281.164 931.682 275.312C926.109 269.321 923.322 261.379 923.322 251.486C923.322 241.593 926.039 233.791 931.473 228.078C937.046 222.226 944.431 219.3 953.627 219.3C960.315 219.3 966.097 221.878 970.974 227.033C971.392 225.082 972.367 223.48 973.9 222.226C975.572 220.972 977.592 220.345 979.961 220.345C982.748 220.345 984.977 221.181 986.649 222.853C988.321 224.525 989.157 226.615 989.157 229.123V282.836C989.157 291.753 986.022 298.859 979.752 304.154C973.621 309.588 964.983 312.305 953.836 312.305ZM955.717 267.161C959.897 267.161 963.241 265.698 965.749 262.772C968.396 259.707 969.72 255.945 969.72 251.486C969.72 246.888 968.396 243.196 965.749 240.409C963.241 237.622 959.897 236.229 955.717 236.229C951.398 236.229 947.914 237.622 945.267 240.409C942.759 243.196 941.505 246.888 941.505 251.486C941.505 255.945 942.759 259.707 945.267 262.772C947.914 265.698 951.398 267.161 955.717 267.161ZM443.466 418.09C440.679 418.09 438.311 417.045 436.36 414.955C434.549 412.865 433.852 410.427 434.27 407.64L443.048 340.551C443.466 337.486 444.72 335.047 446.81 333.236C448.9 331.285 451.408 330.31 454.334 330.31C460.325 330.31 464.227 332.888 466.038 338.043L480.25 379.007C480.947 380.4 481.643 381.097 482.34 381.097C483.315 381.097 484.012 380.4 484.43 379.007L498.642 338.043C500.453 332.888 504.285 330.31 510.137 330.31C513.342 330.31 515.919 331.285 517.87 333.236C519.96 335.047 521.214 337.486 521.632 340.551L530.41 407.64C530.828 410.427 530.062 412.865 528.111 414.955C526.3 417.045 524.001 418.09 521.214 418.09C518.706 418.09 516.546 417.324 514.735 415.791C513.063 414.119 512.088 412.029 511.809 409.521L508.674 365.84C508.535 364.168 507.977 363.332 507.002 363.332C506.027 363.332 505.33 364.029 504.912 365.422L492.79 399.489C490.839 404.644 487.356 407.222 482.34 407.222C480.389 407.222 478.439 406.525 476.488 405.132C474.677 403.739 473.214 401.927 472.099 399.698L459.977 365.84C459.559 364.586 458.862 363.959 457.887 363.959C457.051 363.959 456.494 364.795 456.215 366.467L452.871 409.521C452.732 412.029 451.756 414.119 449.945 415.791C448.134 417.324 445.974 418.09 443.466 418.09ZM590.295 362.287C590.295 359.64 591.131 357.48 592.803 355.808C594.614 354.136 596.844 353.3 599.491 353.3C602.138 353.3 604.298 354.206 605.97 356.017C607.781 357.689 608.687 359.779 608.687 362.287V391.756C608.687 397.469 607.224 402.345 604.298 406.386C601.372 410.287 597.61 413.213 593.012 415.164C588.414 417.115 583.537 418.09 578.382 418.09C573.366 418.09 568.559 417.115 563.961 415.164C559.363 413.213 555.531 410.287 552.466 406.386C549.54 402.345 548.077 397.469 548.077 391.756V362.287C548.077 359.64 548.913 357.48 550.585 355.808C552.396 354.136 554.626 353.3 557.273 353.3C559.92 353.3 562.08 354.206 563.752 356.017C565.563 357.689 566.469 359.779 566.469 362.287V390.92C566.469 393.846 567.584 396.284 569.813 398.235C572.042 400.186 574.899 401.161 578.382 401.161C581.865 401.161 584.722 400.186 586.951 398.235C589.18 396.284 590.295 393.846 590.295 390.92V362.287ZM650.352 418.09C640.877 418.09 633.074 416.139 626.944 412.238C625.69 411.402 624.784 410.427 624.227 409.312C623.669 408.058 623.391 406.874 623.391 405.759C623.391 403.39 624.157 401.231 625.69 399.28C627.362 397.329 629.382 396.354 631.751 396.354C632.865 396.354 633.98 396.633 635.095 397.19C637.603 398.305 640.459 399.28 643.664 400.116C646.868 400.813 649.794 401.161 652.442 401.161C657.597 401.161 660.175 399.977 660.175 397.608C660.175 396.215 659.548 395.03 658.294 394.055C657.04 392.94 654.114 392.174 649.516 391.756C647.704 391.617 645.336 391.338 642.41 390.92C639.623 390.502 636.836 389.736 634.05 388.621C631.263 387.367 628.894 385.556 626.944 383.187C625.132 380.818 624.227 377.614 624.227 373.573C624.227 367.303 626.595 362.357 631.333 358.734C636.07 355.111 642.41 353.3 650.352 353.3C654.95 353.3 659.269 353.788 663.31 354.763C667.49 355.738 670.625 357.201 672.715 359.152C674.665 360.963 675.641 363.053 675.641 365.422C675.641 367.512 674.874 369.393 673.342 371.065C671.809 372.737 669.858 373.573 667.49 373.573C666.236 373.573 665.051 373.294 663.937 372.737C662.265 371.622 660.105 370.786 657.458 370.229C654.95 369.672 652.372 369.393 649.725 369.393C644.43 369.393 641.783 370.508 641.783 372.737C641.783 373.712 642.27 374.618 643.246 375.454C644.36 376.151 646.799 376.778 650.561 377.335C652.929 377.614 655.646 378.032 658.712 378.589C661.777 379.007 664.703 379.843 667.49 381.097C670.416 382.212 672.854 384.093 674.805 386.74C676.755 389.387 677.731 393.01 677.731 397.608C677.731 403.878 675.223 408.894 670.207 412.656C665.191 416.279 658.572 418.09 650.352 418.09ZM702.819 418.09C700.171 418.09 697.942 417.324 696.131 415.791C694.319 414.258 693.414 412.308 693.414 409.939V332.191C693.414 329.962 694.25 328.081 695.922 326.548C697.733 324.876 700.032 324.04 702.819 324.04C705.466 324.04 707.626 324.876 709.298 326.548C710.97 328.081 711.806 330.031 711.806 332.4V360.197C713.617 358.107 716.055 356.435 719.121 355.181C722.186 353.927 725.46 353.3 728.944 353.3C736.746 353.3 743.016 355.599 747.754 360.197C752.63 364.795 755.069 372.11 755.069 382.142V410.357C755.069 412.586 754.163 414.467 752.352 416C750.68 417.393 748.52 418.09 745.873 418.09C743.225 418.09 740.996 417.324 739.185 415.791C737.513 414.258 736.677 412.308 736.677 409.939V384.441C736.677 379.286 735.492 375.593 733.124 373.364C730.894 371.135 728.108 370.02 724.764 370.02C721.28 370.02 718.424 371.204 716.195 373.573C713.965 375.802 712.502 378.31 711.806 381.097V409.73C711.806 412.099 710.9 414.119 709.089 415.791C707.417 417.324 705.327 418.09 702.819 418.09ZM784.353 417.463C781.706 417.463 779.476 416.697 777.665 415.164C775.854 413.631 774.948 411.681 774.948 409.312V362.496C774.948 360.267 775.784 358.386 777.456 356.853C779.267 355.181 781.566 354.345 784.353 354.345C786.861 354.345 788.882 355.111 790.414 356.644C792.086 358.037 793.061 359.779 793.34 361.869C794.873 359.5 796.963 357.48 799.61 355.808C802.257 354.136 805.044 353.3 807.97 353.3C809.782 353.3 811.523 353.509 813.195 353.927C815.146 354.484 816.748 355.599 818.002 357.271C819.256 358.804 819.883 360.615 819.883 362.705C819.883 365.631 818.908 368.069 816.957 370.02C815.146 371.831 812.986 372.458 810.478 371.901C808.667 371.483 806.856 371.274 805.044 371.274C801.84 371.274 799.192 372.389 797.102 374.618C795.012 376.847 793.758 381.376 793.34 388.203V409.103C793.34 411.472 792.434 413.492 790.623 415.164C788.951 416.697 786.861 417.463 784.353 417.463ZM860.22 418.09C854.229 418.09 848.725 416.697 843.709 413.91C838.693 411.123 834.652 407.292 831.587 402.415C828.661 397.399 827.198 391.756 827.198 385.486C827.198 379.077 828.661 373.503 831.587 368.766C834.652 363.889 838.693 360.127 843.709 357.48C848.725 354.693 854.229 353.3 860.22 353.3C866.351 353.3 871.854 354.693 876.731 357.48C881.747 360.127 885.718 363.889 888.644 368.766C891.57 373.503 893.033 379.077 893.033 385.486C893.033 391.756 891.57 397.399 888.644 402.415C885.718 407.292 881.747 411.123 876.731 413.91C871.854 416.697 866.351 418.09 860.22 418.09ZM860.22 401.161C864.539 401.161 868.023 399.698 870.67 396.772C873.457 393.707 874.85 389.945 874.85 385.486C874.85 380.888 873.457 377.196 870.67 374.409C868.023 371.622 864.539 370.229 860.22 370.229C856.04 370.229 852.487 371.622 849.561 374.409C846.774 377.196 845.381 380.888 845.381 385.486C845.381 389.945 846.774 393.707 849.561 396.772C852.487 399.698 856.04 401.161 860.22 401.161ZM940.734 418.09C934.743 418.09 929.239 416.697 924.223 413.91C919.207 411.123 915.166 407.292 912.101 402.415C909.175 397.399 907.712 391.756 907.712 385.486C907.712 379.077 909.175 373.503 912.101 368.766C915.166 363.889 919.207 360.127 924.223 357.48C929.239 354.693 934.743 353.3 940.734 353.3C946.865 353.3 952.368 354.693 957.245 357.48C962.261 360.127 966.232 363.889 969.158 368.766C972.084 373.503 973.547 379.077 973.547 385.486C973.547 391.756 972.084 397.399 969.158 402.415C966.232 407.292 962.261 411.123 957.245 413.91C952.368 416.697 946.865 418.09 940.734 418.09ZM940.734 401.161C945.053 401.161 948.537 399.698 951.184 396.772C953.971 393.707 955.364 389.945 955.364 385.486C955.364 380.888 953.971 377.196 951.184 374.409C948.537 371.622 945.053 370.229 940.734 370.229C936.554 370.229 933.001 371.622 930.075 374.409C927.288 377.196 925.895 380.888 925.895 385.486C925.895 389.945 927.288 393.707 930.075 396.772C933.001 399.698 936.554 401.161 940.734 401.161ZM999.77 418.09C997.123 418.09 994.893 417.324 993.082 415.791C991.271 414.258 990.365 412.308 990.365 409.939V362.496C990.365 360.267 991.201 358.386 992.873 356.853C994.684 355.181 996.983 354.345 999.77 354.345C1002.97 354.345 1005.41 355.46 1007.09 357.689C1007.78 358.525 1008.2 359.361 1008.34 360.197C1010.01 358.107 1012.24 356.435 1015.03 355.181C1017.81 353.927 1020.95 353.3 1024.43 353.3C1033.91 353.3 1040.73 356.435 1044.91 362.705C1047.42 359.64 1050.49 357.341 1054.11 355.808C1057.73 354.136 1061.49 353.3 1065.4 353.3C1073.2 353.3 1079.33 355.599 1083.79 360.197C1088.39 364.795 1090.69 372.11 1090.69 382.142V410.357C1090.69 412.586 1089.78 414.467 1087.97 416C1086.3 417.393 1084.14 418.09 1081.49 418.09C1078.84 418.09 1076.61 417.324 1074.8 415.791C1073.13 414.258 1072.29 412.308 1072.29 409.939V384.441C1072.29 379.286 1071.39 375.593 1069.58 373.364C1067.76 371.135 1065.19 370.02 1061.84 370.02C1058.5 370.02 1055.78 371.065 1053.69 373.155C1051.74 375.106 1050.42 377.474 1049.72 380.261V410.357C1049.72 412.586 1048.82 414.467 1047 416C1045.33 417.393 1043.17 418.09 1040.53 418.09C1037.88 418.09 1035.65 417.324 1033.84 415.791C1032.17 414.258 1031.33 412.308 1031.33 409.939V384.441C1031.33 379.286 1030.42 375.593 1028.61 373.364C1026.8 371.135 1024.22 370.02 1020.88 370.02C1017.67 370.02 1015.03 371.065 1012.94 373.155C1010.85 375.106 1009.45 377.405 1008.76 380.052V409.73C1008.76 412.099 1007.85 414.119 1006.04 415.791C1004.37 417.324 1002.28 418.09 999.77 418.09ZM1132.21 418.09C1122.74 418.09 1114.93 416.139 1108.8 412.238C1107.55 411.402 1106.64 410.427 1106.09 409.312C1105.53 408.058 1105.25 406.874 1105.25 405.759C1105.25 403.39 1106.02 401.231 1107.55 399.28C1109.22 397.329 1111.24 396.354 1113.61 396.354C1114.72 396.354 1115.84 396.633 1116.95 397.19C1119.46 398.305 1122.32 399.28 1125.52 400.116C1128.73 400.813 1131.65 401.161 1134.3 401.161C1139.46 401.161 1142.03 399.977 1142.03 397.608C1142.03 396.215 1141.41 395.03 1140.15 394.055C1138.9 392.94 1135.97 392.174 1131.37 391.756C1129.56 391.617 1127.19 391.338 1124.27 390.92C1121.48 390.502 1118.7 389.736 1115.91 388.621C1113.12 387.367 1110.75 385.556 1108.8 383.187C1106.99 380.818 1106.09 377.614 1106.09 373.573C1106.09 367.303 1108.45 362.357 1113.19 358.734C1117.93 355.111 1124.27 353.3 1132.21 353.3C1136.81 353.3 1141.13 353.788 1145.17 354.763C1149.35 355.738 1152.48 357.201 1154.57 359.152C1156.52 360.963 1157.5 363.053 1157.5 365.422C1157.5 367.512 1156.73 369.393 1155.2 371.065C1153.67 372.737 1151.72 373.573 1149.35 373.573C1148.09 373.573 1146.91 373.294 1145.8 372.737C1144.12 371.622 1141.96 370.786 1139.32 370.229C1136.81 369.672 1134.23 369.393 1131.58 369.393C1126.29 369.393 1123.64 370.508 1123.64 372.737C1123.64 373.712 1124.13 374.618 1125.1 375.454C1126.22 376.151 1128.66 376.778 1132.42 377.335C1134.79 377.614 1137.51 378.032 1140.57 378.589C1143.64 379.007 1146.56 379.843 1149.35 381.097C1152.27 382.212 1154.71 384.093 1156.66 386.74C1158.61 389.387 1159.59 393.01 1159.59 397.608C1159.59 403.878 1157.08 408.894 1152.07 412.656C1147.05 416.279 1140.43 418.09 1132.21 418.09Z" fill="#686868"/>
<defs>
<linearGradient id="paint0_linear_153_6" x1="189.25" y1="-0.000488281" x2="189.25" y2="252.5" gradientUnits="userSpaceOnUse">
<stop stop-color="white"/>
<stop offset="1" stop-color="#6CFFFF"/>
</linearGradient>
<linearGradient id="paint1_linear_153_6" x1="189.75" y1="137.5" x2="189.75" y2="252" gradientUnits="userSpaceOnUse">
<stop stop-color="white"/>
<stop offset="1" stop-color="#6CFFFF"/>
</linearGradient>
<linearGradient id="paint2_linear_153_6" x1="189.75" y1="137" x2="189.75" y2="436" gradientUnits="userSpaceOnUse">
<stop stop-color="#6CFFFF"/>
<stop offset="1" stop-color="#4AB5B5"/>
</linearGradient>
</defs>
</svg>
