<?xml version="1.0" encoding="utf-8"?>
<!-- Generator: Adobe Illustrator 17.0.0, SVG Export Plug-In . SVG Version: 6.00 Build 0)  -->
<!DOCTYPE svg PUBLIC "-//W3C//DTD SVG 1.1//EN" "http://www.w3.org/Graphics/SVG/1.1/DTD/svg11.dtd">
<svg version="1.1" id="Layer_1" xmlns="http://www.w3.org/2000/svg" xmlns:xlink="http://www.w3.org/1999/xlink" x="0px" y="0px"
	 width="343.001px" height="88.713px" viewBox="0 0 343.001 88.713" enable-background="new 0 0 343.001 88.713"
	 xml:space="preserve">
<metadata><?xpacket begin="﻿" id="W5M0MpCehiHzreSzNTczkc9d"?>
<x:xmpmeta xmlns:x="adobe:ns:meta/" x:xmptk="Adobe XMP Core 5.5-c014 79.151739, 2013/04/03-12:12:15        ">
   <rdf:RDF xmlns:rdf="http://www.w3.org/1999/02/22-rdf-syntax-ns#">
      <rdf:Description rdf:about=""
            xmlns:dc="http://purl.org/dc/elements/1.1/"
            xmlns:xmp="http://ns.adobe.com/xap/1.0/"
            xmlns:xmpGImg="http://ns.adobe.com/xap/1.0/g/img/"
            xmlns:xmpMM="http://ns.adobe.com/xap/1.0/mm/"
            xmlns:stRef="http://ns.adobe.com/xap/1.0/sType/ResourceRef#"
            xmlns:stEvt="http://ns.adobe.com/xap/1.0/sType/ResourceEvent#"
            xmlns:illustrator="http://ns.adobe.com/illustrator/1.0/"
            xmlns:xmpTPg="http://ns.adobe.com/xap/1.0/t/pg/"
            xmlns:stDim="http://ns.adobe.com/xap/1.0/sType/Dimensions#"
            xmlns:xmpG="http://ns.adobe.com/xap/1.0/g/"
            xmlns:pdf="http://ns.adobe.com/pdf/1.3/">
         <dc:format>image/svg+xml</dc:format>
         <dc:title>
            <rdf:Alt>
               <rdf:li xml:lang="x-default">Print</rdf:li>
            </rdf:Alt>
         </dc:title>
         <xmp:MetadataDate>2020-11-25T21:01:45+13:00</xmp:MetadataDate>
         <xmp:ModifyDate>2020-11-25T21:01:45+13:00</xmp:ModifyDate>
         <xmp:CreateDate>2020-11-25T21:01:45+13:00</xmp:CreateDate>
         <xmp:CreatorTool>Adobe Illustrator CC (Macintosh)</xmp:CreatorTool>
         <xmp:Thumbnails>
            <rdf:Alt>
               <rdf:li rdf:parseType="Resource">
                  <xmpGImg:width>256</xmpGImg:width>
                  <xmpGImg:height>72</xmpGImg:height>
                  <xmpGImg:format>JPEG</xmpGImg:format>
                  <xmpGImg:image>/9j/4AAQSkZJRgABAgEASABIAAD/7QAsUGhvdG9zaG9wIDMuMAA4QklNA+0AAAAAABAASAAAAAEA&#xA;AQBIAAAAAQAB/+4ADkFkb2JlAGTAAAAAAf/bAIQABgQEBAUEBgUFBgkGBQYJCwgGBggLDAoKCwoK&#xA;DBAMDAwMDAwQDA4PEA8ODBMTFBQTExwbGxscHx8fHx8fHx8fHwEHBwcNDA0YEBAYGhURFRofHx8f&#xA;Hx8fHx8fHx8fHx8fHx8fHx8fHx8fHx8fHx8fHx8fHx8fHx8fHx8fHx8fHx8f/8AAEQgASAEAAwER&#xA;AAIRAQMRAf/EAaIAAAAHAQEBAQEAAAAAAAAAAAQFAwIGAQAHCAkKCwEAAgIDAQEBAQEAAAAAAAAA&#xA;AQACAwQFBgcICQoLEAACAQMDAgQCBgcDBAIGAnMBAgMRBAAFIRIxQVEGE2EicYEUMpGhBxWxQiPB&#xA;UtHhMxZi8CRygvElQzRTkqKyY3PCNUQnk6OzNhdUZHTD0uIIJoMJChgZhJRFRqS0VtNVKBry4/PE&#xA;1OT0ZXWFlaW1xdXl9WZ2hpamtsbW5vY3R1dnd4eXp7fH1+f3OEhYaHiImKi4yNjo+Ck5SVlpeYmZ&#xA;qbnJ2en5KjpKWmp6ipqqusra6voRAAICAQIDBQUEBQYECAMDbQEAAhEDBCESMUEFURNhIgZxgZEy&#xA;obHwFMHR4SNCFVJicvEzJDRDghaSUyWiY7LCB3PSNeJEgxdUkwgJChgZJjZFGidkdFU38qOzwygp&#xA;0+PzhJSktMTU5PRldYWVpbXF1eX1RlZmdoaWprbG1ub2R1dnd4eXp7fH1+f3OEhYaHiImKi4yNjo&#xA;+DlJWWl5iZmpucnZ6fkqOkpaanqKmqq6ytrq+v/aAAwDAQACEQMRAD8A9U9Nziryjzz/AM5BeXdE&#xA;lksdEj/TF/HVXlVuNqjD/iwVMlP8nb/KyqWUDk3Rwk83kOs/nl+ZGpu1NT+oQtWkNmixAV8HIaT/&#xA;AIbKTlkW4Yohjc3nbznM/OXXtRkbpVruc7dafbyPEe9lwjuRdj+ZXn+xYG38wX3w04rLO8yin+TK&#xA;XX8MIme9BgO5nflj/nJLzRZyJHr9tFqlt0eaNRBcD3+EekflxHzyccx6sJYR0e6eUPPXlrzbZG50&#xA;a69Rkp69rIOE8RPZ0/iKj3y+MgeTjygRzT/JMXYq8P1GTzD+ZP5ha1oS6tNo/ljy+zRXK25KtI8b&#xA;mNuW4BLMrEFtlUdK5Qbka6N4qMb6lMfyoi8u6d5qurLSPPD61aSwstvpEoevNCCzqz/AxVV/3WBU&#xA;V7DDCgeaMlkbhMrf85Lu/wDOV35X0vy/PeXFnfm1mnWRQi28T+lNO+3w8XHwg7EdwdsPib1SPD2u&#xA;3eYfza1o+Zrzy95P0Ftcu9NB/SE5fhGjLsyKB1odtz12AxOQ3QCjGKslHeXPzdsNX8ra1q81hLaa&#xA;h5fR21LS2argqrEBWIXZihG61BHTxIyWESx0a71K9/N+C1/LOw86/o5nN9KIBZeoBxkEjxyfHQ/D&#xA;+5Yrt4YnJ6bUY/VSp50/NhfL15olpa6TNqU+twmaCKNgr1cAQxgUapZ2AbwHjjLJSxx3al+X35pa&#xA;jr/mLUfLmvaT+h9VsIjcemXJHAFQwbkBQ0kVgRsRjCdmis8dCwx66/OvzLqyavceXPLct55fsFkj&#xA;l1RJCsoHE/vVHHbiPj4ipA60yPiE8gz8IDmd04/5x3urq4/L5jcTPMUvp1QyMWIUqjUFf8pifpw4&#xA;uTHN9T07LWp2KuxV2KuxV2KuxV2KuxV2KuxV2KuxV8/fnz+aly93P5Q0ab07eL4NXuENGdz1gU9l&#xA;H7fidula4+WfQORix9S8NyhyHYq2qs1eIJoKmgrQDvhVrArsVTDQdf1bQdUg1TSrhra8gNVdehHd&#xA;WHRlbuDhBpBAL6//AC+862fnDy1Bq8CiKepivbcGvpToByX5EEMvsczISsOFOPCaZJkmLx7XfJfn&#xA;3yr56vfNnkm3i1K11YltQ02VgpDyMGc/E0dQX+JWU1FSKU60mJBsNwkCKKl5G8iebbr8xofOGsaL&#xA;Z+W7WzjlWKwtBGPVeSN4+TLGzb/vWLMaVoNsYxPFZ2TKY4aG7Ify58k65ofnTzlq+oRxpa6teNJY&#xA;MrBmeN5ZJuVB9naQDfuD88lCJBLGcgQAkM/l38yfJfnfXNY8r6ZFrml+YJDcSxPIqPHKXaShqyH4&#xA;WkelKgjwORqUSSE3GQAPREeUfyw8yDy35uuNdeOHzD5tjl5QIQY4WcSMORQlfikl3oTQd8MYGjfV&#xA;ZTFiuQYa/kX84r/yJb+TJNGt7ew0y5M8czzRiWUySOeIIdlopmZidtvxhwyqmfHG7Z/5l8geYL3z&#xA;n5H1C2WN7LRERdQm504mAq2ykcm50otB86ZMwNhrjMUVew8i62v5y635mnRBot7YpBDIHHNnaKKJ&#xA;l49Rx9Ek18R9BETxWpkOEBiHl/yt+b3lK11byjpOmW15pepSyG31eWRQkQlT0mlI5cvsIvwldj0r&#xA;XICMhszMoncs8/JryjrHlbyedO1dEjvHuppjGjB+KsFRasNt+Fdu2WY4kBrySBOzOsm1uxV2KuxV&#xA;2KuxV2KuxV2KuxV2KuxV2Kvknzl+UP5haPeXF3c2b6rBI7SPqFpWbmWPJndAPUU771WnvmJLGQ5k&#xA;ckSjPKUP5GNxTzC2rW92PhlW4IMAYdQDbL6vXxGGPD1RLj6PRZbX/nGzS9LOoKtjcxrssCTTXNwx&#xA;O9BCzs/0kADxyz0Br9ZTb8q/N35YancahZ+WNJOlXSRmaeOSJA8sCkKSGVpCQKiq174YSieTHJGQ&#xA;5pNo2qf847eZfrDy2Frpc1TJJHfAWZO/VGST0/8AYq1fbADAsiJhJfMkH/ONFuriL1nn3JXTXuZD&#xA;v4NKxh/HIngTHxHm0/l221/UhD5G0nVLm3rRzc+nKQT05GJFSMf6zZXV8m265vePyP8Ay58z+UIt&#xA;Qm1mWKNb8RcLCN/UKNHy+J2HwA0anwk/PL8cCObj5Zg8nqeWtTznzB+d+haR5hvNDi0vUNRurEhb&#xA;h7WNWUNQEgAsG2rStMrOQA02jESLTzyF+Y2h+dLe7fTo5reexdUurW5VVdedeLDizAg8SPowxmJM&#xA;ZwMWUhlPQg9eh8DQ/dk2Cx7m2jlSF5USaT+7jZgGb5A7nFV7MqKWchVG5YmgAxVbFNDKvKJ1kUGh&#xA;KkMK/RirGPJn5gWXmnVNf0+3tZLd9CuRbu8hBEoYuocAfZ+KFtvCm+9BCM7tnKFUmXmXXL7SdPhu&#xA;rDSp9ZeWeKEwWrIGVJGoZCXIFB/tkCpEiaREWm/MbV+EkVoaV264WKyC4t7hOcEqSoCVLIwYVHUV&#xA;HhirvrNv64t/VT1yOQh5Dnx8ePWmKqgIYVBqD0IxV2KuxV2KuxV2KuxV2KuxV2KuxV2KuxViX5jR&#xA;eTLLy5fa15h0q1v1tY/gEsaGR5G+GONHILKWYgVHTrkJ1VlnC7oPj65mWe5lmWJIVkdnEMYIRATX&#xA;itSTQdBU5iOaz38hbiSL80NKjQ/DOlzHJ/qi2kk/4kgyeL6mvL9LE/N2mLpfmnV9OQUjtLyeGMf5&#xA;CSMF/wCFpkZCiyibD2r8htI/LzX9ElW50S1k13TmC3TThpxKjVMcwSUuorQhgopUe4y7EAQ05TIH&#xA;m9wgt4LeJYbeNIYUFEjjUKoHsBQDL3HX4q7FXzoqeaG/OPzYPLut2uh3VW9a4vBGUePlH8C+okor&#xA;Wh6Zj78RpyduEWE0/KG7k0/zt5v0m9mi1PWZ4HvJddtJPUifgQWVeKqB8c9SR0YU8MOPmUZBsCt/&#xA;5x68tvf2c3mm6vLm4n0y4uLbTrEysIleSJHmdgTuZPVHtUVNTSjiHVc0ujz6yh1DzNZa3qt/pcmp&#xA;6y8pZtXfUYrRbRtioMEo3UHbdgKfCKUysbth2oPTfO2qfU/yn8taV5vtpNU1bUWT01gu1hUmI/u2&#xA;luKOjfu5E5VqCd67csskfSLaoj1EhJvyys9R8ufnFHows30iK8tH+t6cbtL1TxjaRG5oAAapUBvi&#xA;G/Y4ICpUymbjbDL3WvMun33nW3031YdIvdR4a3ewIWaOMXEyxpyqAok5sKVHKlK9cgSd2YANPRfz&#xA;WTTtK/Jfy5D5cvpZNOW9tzbXYkbm49KeWrEUoRIK8f2SO1MsntEU1495G1f83LE6t+bXlXRprieG&#xA;yvLcxTCGQoeEskiygeHqIvFvEYcguQCMZqJKH/LXT5PLX5reb/LmjO72dvp7zW0ErcuUqGExcvsg&#xA;09Zlr4YICpEBMzcQSwvy3F5HvPLOu635l1i5t/O0Usklo3quk4lVQYiigfEzSVVv5R/L1yAqrPNn&#xA;K7AHJ7B/zj5LLJ+W9v6js/C5nVORJovKtBXoKnLsX0tOb6npOWNTsVdirsVdirsVdirsVdirsVdi&#xA;rsVeF/8AOT2uyJbaNoUbUSVpLy4Xx4fu4v8AiT5RmPRyMA6vAMx3Iekf84+2D3P5l2cygkWMFxO9&#xA;OwaIw7/TMMtxD1NWY+lj35nyxy/mH5hZAAovpkIHSqOVb8RvkZ8yyh9ITz8h9Zk038yLCIMRDqKS&#xA;2kwHcMhdP+SiLhxGpIyi4vrDMtw3Yq7FWG+Yfyh8ha/qkuqajp5a9np60kUskQcgU5FUYDlTvkDj&#xA;BZjIQmPlbyB5S8rxzJounrA1yONxK7PK7qP2S0hY8fYbYYwA5IlMnmjvLvlnQ/Llg1ho1qtpavK8&#xA;7RqSaySdSSxJ6AAewAwiIHJBkTzY1rX5Lfl5rGqvqd3pzLcTNzuFhlkijkY9SyqRQnvxpX55E4wW&#xA;YyyCba/+X/lPXdEttGv7FTY2QUWSxFo2hCrxHBlNfs9jse+EwBFMRMg2oeW/yw8k+XL2G+0rThFf&#xA;QxtEty7vI5DmrE8mI5HpWnTbpiIAJlMnmjLfyP5Ut49Xii06IR685fVUNSJiQfE/CKsSONKEkjHh&#xA;COIqR/L3ye3l218uyaakmj2Uqz29q7OwWRWLcuRPI1LNWp3BI6Y8Aql4zdo6+8r6Dfa1Y63d2iS6&#xA;npwZbO4NaoH9gaNSp416dsJiLtAkap1r5X0G01+71+3tEj1e+jWG6uhWrIlNqVoK8VrQb0FceEXa&#xA;8Rqnkutflf8AmbfX165j8uzTXjOBrBt/SuVSQ0rQRsFYLtyozD+au+UmEvJuE4+b0z8v/KMflLyr&#xA;aaIs31iSHk9xOBxDyyMWag8BWg9hlsI0Kapys2yLJMXYq7FXYq7FXYq7FXYq7FXYq7FXYq+av+cm&#xA;hJ/jbTia+l+jY+Phy9ebl+FMxs3NysHJ5DlLc9z/AOccLS3sNO8y+aLraG1iWISeCRK0834BMvw9&#xA;S4+boHimoXst9f3N7N/e3UrzSf60jFj+JyklvAT/APLFWb8wvLwUEn6/AaDfYOCfwyUOYYz+kvsz&#xA;MxwnYq7FXzxqP5oa95c/OXU5Ly6nuNAjuBa3dqSzRRwEAK6IPhVkPxeLbjvmOZkSckQBj5rfM/5s&#xA;6zq35oaSuhXssGgWt9FZwtESIromRVndx9lwQ9Fr0Wh2JxlMmWyxxgR35vXX/MC1T8xo/JRtH9aS&#xA;1+sLechx5hS/Dj1pwX7Veu1O+W8e9NPB6bUNG/M7T9Qn84LJaSQQ+UHkFzJUOZY4hLyZVFKHlbvQ&#xA;eFPoRPn5KYVXmknkn83Nf8z6laqnlWZNHvJHjTUoZhMsJStTMOChencj2rkY5CejKWMDqxAefPM+&#xA;i/mt5vFjYXevMV4x6fG7enGkBU+oQA9AikgUHVsjxESLPgBiGc6N+cNnqP5c6j5v+oMkumMYriwE&#xA;gNZfg4UkIHwN6q78dt+tMmMlxtrOOpUreVvzatNc03U9an0u503QNNt1mOoz0KySAH1oowPtFGFB&#xA;xrXvxJAxjkvdZY626sb/AOV9aytqutyeULpPKrS+mNS9T4uPLjypw4ddvtUrtyyPinnWzLwhyvdl&#xA;nnD81dF0DQ9M1G0hfVbjWwp0iygqrTBgpqTRio+NRTiWqaU60nKYAYxxklLPLX5u3tz5lt/LnmjQ&#xA;JvL+oXorYvI5dJCQaKeSpStCARXfbbAMm9EJlj2sG1HX/wA6Lm01/VtA0by7datqGl0LGNqIUVaz&#xA;O3FXZQtQF/mr26EHJvQCjFtZKRn/AJyI1KbRxqtl5UnlsrYqmqXTTEQxSO1FRXWNq1FN2AoTSnQk&#xA;eLtyZeDvVsq81/m7Z6N5X0TWLOwe9uPMAU2Nq0giVeSqW9SSjAcS4HT6RkpZKFsI47JHcnfkXzTr&#xA;fmCzuZNX0GfQ57d1RRK3OOZWXlziei8gO+1PAnekoyJ5hjKIHIsmyTF2KuxV2KuxV2KuxV2KuxV4&#xA;h/zk3oEk2m6Tr0S1W1ke1uSOyzUaMn2DIw+nKMw6t+A9Hz3mO5L2zSrtdI/5xsvpYjxm1W5kiqNq&#xA;mSZYnB/55RHLxtBoO83ieUN707/nHry9LqXn2PUChNrpETzyP+z6kimKJfn8TMP9XLcQstWY0H1L&#xA;mU4jsVdiryix/K27vfPvnG4162V/L+tQqlvIrjmzM6SBkA3VozH3706jKhDc23HJsK5ofzT+Uc1t&#xA;c+R7Lyva8tO0e+lm1CeV15/vHhkMshovIkQEbDwFMEsfKljk52t8+aD560z81LPzj5e0n9MQfVhA&#xA;0IYLxbg0bK24I+FgwbpjIESsLAgxoq35e+UvPWlL57v9U0y2fU9bdZbW0kkVraaVhNJIhoT+7rcB&#xA;d+u498MIkWs5A0xPyh5D86wefdJv7Hy7N5Ygt5g2sOtz6ltJEGBdI1Ys1HWq8eb9QdqZCMTfKmcp&#xA;iudvQfKHkzXtN/NXzRr93Ei6ZqEYFnKHBLl2RvsjcceBDV+iuWRiRIlrlIGIDF/Lv5ZebtO/KPzR&#xA;oNxbJ+lL64MlpAkit6ixGPcHp8fpHjX8MgIERIZGYMgWZWvkS/ufygi8oXbLbag9iImIPJUmDeqo&#xA;YjqOYAan0ZPh9NMOP1W8/ksfzjuPJi/l6/lyNYgFtjq5kT0/q6OHXvx7D4utP2eWQqVVTZcb4rT3&#xA;zl+WXmOy0Tyjd+Wit9qvlILW2egE+6OzJyK/tp9mtaHbcbmUDQroxjMWb6qVtonn7zx570TW/MOj&#xA;DQNL8vsJkRn5SSSqwkAHc1dF7AAV6nGjI2U2IggdU+8o+S9d0381fNGvXcSLpeoRhbSUOCZDIyMR&#xA;x6jjwIav0VyUYkSJYykDEBjflz8ufNlj+S/mPy7cWgXV7y7kmtrcOp5onoDZgafF6DcfoyIgeEhl&#xA;KY4gVbzH5P8AMsX5deWdFk8swa/9Si/3JQicx3ED0HH0HRl3+Ihqcht0I3xMTQFLGQ4ibTL8jPLP&#xA;mvQ7XVxq8E1hplxKjaXplxKJniA58ztSlQVHQcqVphxRIY5ZA8nqWWtTsVdirsVdirsVdirsVdiq&#xA;XeY9BsNf0O80e/Xla3kZjcjqp6q6/wCUjAMPcYCLFJiaNvjzzn5L1vylrEmm6nEQtSba6APpTxg7&#xA;Oh/WOo75hyiQXNjIEK8nna4k/L6LyebcenFfm+W7Db8ChX0ilP525cuXtTDxbUjh9VpJpWk6jq2o&#xA;Q6dptu9zeXDBIoUFSSfHsAO5OwyIFsiafXP5X+QYfJnlpLFisuo3DetqNwvRpCKBFJ34INh9J75l&#xA;wjQcOc+IsvybB2KuxVA/p7RPqk159ft/qlvKbe4uPVT045VYIY3atFbkQKHBYTRR2FChfX1nYWct&#xA;5ezJb2sCl5p5CFRVHck4kqAr4q7FXYq7FXYqg9Q1jTNOe2S+uUge8lW3tVY7ySt0RQOpwEpAtGYU&#xA;OxV2KpZq/mjy3o0sUOrana2Ms+8UdxKkbMK0qAxG1e+AyASIk8kyVldQ6EMrAFWBqCD0IOFCUX/n&#xA;Dyvp8t5FeanBDJYCM3iM28Xrf3Yanduw64DIMhEpwCGAI3B3BwsXYqlus+ZfL2iel+l9StrD16iE&#xA;XEqRl6deIYitK74CQOaREnkmEUsU0STQuskUih45EIZWVhUMpGxBGFC7FXYq7FVCzvrO9iaa0mSe&#xA;JXeJnjIYB4nKOu3dWUg42pCvirsVQOs6Fo+t2TWOrWcV7atv6UyhgD05Keqt7jfAQCkEjk8/m/5x&#xA;2/LmSf1Uju4krX0Enqnyq6s//DZX4UWzxpMy8s+SfK3liEx6Jp8dqzikk27yuBv8UjlnI9q0ycYg&#xA;cmEpE808yTF2KuxV2KvHZ/yc1afTdTma5lSa5vLq8GjB19Ca4+syG2uGfl8NIH+x3PGu4plPht3i&#xA;BkGoaT57bzpdfV7YvoNzqWnXy3v1pV4Q28KRzxLBXl8TJyPYjxOSINsQRSUXnkzzdcW3nWzWxlMe&#xA;rws1hNc3iys0rS8jEgEnAR03VmRGX7PxDfBwndlxDZHS+QvMUCahplncXbaVNrGnXEEj3rmf6oFj&#xA;+vMJS/qAlue1antjwlHGEF5i8meeZfOoudNWdrFZbD9F6gt/6cNlbW4AuIpLZiWmMm++9a9eoxMT&#xA;aRIUvj8pefR+Yp1FxObX9JtcjVvro+r/AKNKUFl9SrXkOnLj13x4Ta8Q4VA/lj5muLb1Lm91D63P&#xA;BqpvI11CQRmf1ydMAAenEKxenSv2vDBwFeMJtD5e83Dzj5e1Ge1mngt7KG31Od72kSSJES8ixpIj&#xA;F/UJVgVdHG/wkVyVGwixRZF5j8s/pXzN5b1FofUh0qaeWV/UZChaL92QARy/eKP9rJGNkMIyoFiF&#xA;55I83J5K9KE3F1rE2qNdatZm+ZGubJLiYpbxTFuEQZHRjQjvXfbIcJpmJC1lh5D853Wg6NpuqzXM&#xA;Fst3fS3VtHfMZYLWWBxawPOrAy8JaA0rsfDERNJMxad/l75S8waLeR3WpT3Mz3emW41L6zdNc11B&#xA;ZGL0qzU4oQtRthhEhjOQK3V9J8wWHmvV9UtfL8XmO11m3tokDzwQm3NuGVopBPWsT8ufwA79sSDf&#xA;K1BFc6STzb5R/MK+84m809JFglaxbT76K+9KHTkhA+tRvbfCZvUNei9PuwSibZRlGkXf/lnLe6rq&#xA;tzPac47zXrO9U/WHXlaRRIJWorihDl6fteHbEw+9An9y2x8oed0/NKbV7qac6QLhpYLmOcGJrZoS&#xA;q2zwtJX4GA6Rbn4uWIieK1Mhw03+WHlHzxpGvXt35hmnZXikjldpxNDcytNzSYKZJGUhKj7CU6UO&#xA;MIkHdZyBGyL84+XvMo1/UdS0uwOpLqlhFZRzRSWqT2bwyO7AC7BiaKYP8VAT7d8MgbREikVpPlXz&#xA;I2o6Xd6nctHLY6LFbfuZCkA1GrAuYIiiOERqCq8d8IiVMh9rFvK3kj8xYI9WjuhPZz3GkXdnLcza&#xA;h9ZW71CZm9G5jVSTCFB6mh9upyEYllKUUcug/mTqmj60t9BLpt3eRaLFYxx3yu6G0nreSLIjURmX&#xA;4tuu3U4akQi4g/NdqfkrzXaaOthYRT6np1vrUtz+jHv3hlmsJIqRqLkuGAjlYtxZt+9cTE0okL+C&#xA;WL5F8823lHQ7L6lNdalZX11cXUSX4ijdZpyQZnR4XYsh5LIjclP7JqRg4TTLjFl//9k=</xmpGImg:image>
               </rdf:li>
            </rdf:Alt>
         </xmp:Thumbnails>
         <xmpMM:InstanceID>xmp.iid:1a214ce2-0ff2-4ceb-abc6-adff562b0a87</xmpMM:InstanceID>
         <xmpMM:DocumentID>xmp.did:1a214ce2-0ff2-4ceb-abc6-adff562b0a87</xmpMM:DocumentID>
         <xmpMM:OriginalDocumentID>uuid:5D20892493BFDB11914A8590D31508C8</xmpMM:OriginalDocumentID>
         <xmpMM:RenditionClass>proof:pdf</xmpMM:RenditionClass>
         <xmpMM:DerivedFrom rdf:parseType="Resource">
            <stRef:instanceID>uuid:d1c078a0-2746-42b2-b0d1-25aedff8fb1e</stRef:instanceID>
            <stRef:documentID>xmp.did:1b6690ed-28a8-c141-9479-b6a9cf6be651</stRef:documentID>
            <stRef:originalDocumentID>uuid:5D20892493BFDB11914A8590D31508C8</stRef:originalDocumentID>
            <stRef:renditionClass>proof:pdf</stRef:renditionClass>
         </xmpMM:DerivedFrom>
         <xmpMM:History>
            <rdf:Seq>
               <rdf:li rdf:parseType="Resource">
                  <stEvt:action>saved</stEvt:action>
                  <stEvt:instanceID>xmp.iid:1a214ce2-0ff2-4ceb-abc6-adff562b0a87</stEvt:instanceID>
                  <stEvt:when>2020-11-25T21:01:45+13:00</stEvt:when>
                  <stEvt:softwareAgent>Adobe Illustrator CC (Macintosh)</stEvt:softwareAgent>
                  <stEvt:changed>/</stEvt:changed>
               </rdf:li>
            </rdf:Seq>
         </xmpMM:History>
         <illustrator:StartupProfile>Print</illustrator:StartupProfile>
         <xmpTPg:HasVisibleOverprint>False</xmpTPg:HasVisibleOverprint>
         <xmpTPg:HasVisibleTransparency>False</xmpTPg:HasVisibleTransparency>
         <xmpTPg:NPages>1</xmpTPg:NPages>
         <xmpTPg:MaxPageSize rdf:parseType="Resource">
            <stDim:w>343.000977</stDim:w>
            <stDim:h>88.713013</stDim:h>
            <stDim:unit>Pixels</stDim:unit>
         </xmpTPg:MaxPageSize>
         <xmpTPg:PlateNames>
            <rdf:Seq>
               <rdf:li>Cyan</rdf:li>
               <rdf:li>Magenta</rdf:li>
               <rdf:li>Yellow</rdf:li>
               <rdf:li>Black</rdf:li>
            </rdf:Seq>
         </xmpTPg:PlateNames>
         <xmpTPg:SwatchGroups>
            <rdf:Seq>
               <rdf:li rdf:parseType="Resource">
                  <xmpG:groupName>Default Swatch Group</xmpG:groupName>
                  <xmpG:groupType>0</xmpG:groupType>
               </rdf:li>
            </rdf:Seq>
         </xmpTPg:SwatchGroups>
         <pdf:Producer>Adobe PDF library 10.01</pdf:Producer>
      </rdf:Description>
   </rdf:RDF>
</x:xmpmeta>
                                                                                                    
                                                                                                    
                                                                                                    
                                                                                                    
                                                                                                    
                                                                                                    
                                                                                                    
                                                                                                    
                                                                                                    
                                                                                                    
                                                                                                    
                                                                                                    
                                                                                                    
                                                                                                    
                                                                                                    
                                                                                                    
                                                                                                    
                                                                                                    
                                                                                                    
                                                                                                    
                           
<?xpacket end="w"?>
	</metadata>
<g enable-background="new    ">
	<path fill="#60422F" d="M82.756,17.941v-0.042c0-4.239,3.302-7.711,7.817-7.711c2.258,0,3.749,0.512,5.091,1.448
		c0.319,0.235,0.682,0.682,0.682,1.321c0,0.894-0.724,1.618-1.619,1.618c-0.468,0-0.767-0.17-1.001-0.34
		c-0.894-0.639-1.853-1.023-3.259-1.023c-2.386,0-4.282,2.109-4.282,4.644v0.042c0,2.726,1.875,4.729,4.516,4.729
		c1.193,0,2.257-0.298,3.088-0.895v-2.13h-2.215c-0.788,0-1.427-0.618-1.427-1.406c0-0.788,0.639-1.426,1.427-1.426h3.749
		c0.916,0,1.64,0.724,1.64,1.64v3.62c0,0.959-0.362,1.619-1.15,2.087c-1.214,0.746-2.982,1.492-5.219,1.492
		C85.951,25.61,82.756,22.351,82.756,17.941z"/>
	<path fill="#60422F" d="M100.668,15.428c0-0.895,0.724-1.619,1.619-1.619c0.894,0,1.619,0.724,1.619,1.619v0.511
		c0.468-1.107,1.235-2.13,2.194-2.13c1.001,0,1.576,0.66,1.576,1.576c0,0.853-0.554,1.363-1.214,1.513
		c-1.64,0.383-2.556,1.64-2.556,3.94v3.025c0,0.894-0.724,1.618-1.619,1.618c-0.895,0-1.619-0.724-1.619-1.618V15.428z"/>
	<path fill="#60422F" d="M109.592,19.71v-0.043c0-3.28,2.641-5.942,6.198-5.942c3.536,0,6.156,2.62,6.156,5.9v0.042
		c0,3.281-2.642,5.943-6.198,5.943C112.211,25.61,109.592,22.99,109.592,19.71z M118.75,19.71v-0.043
		c0-1.682-1.214-3.152-3.003-3.152c-1.853,0-2.961,1.426-2.961,3.11v0.042c0,1.683,1.214,3.153,3.003,3.153
		C117.643,22.819,118.75,21.392,118.75,19.71z"/>
	<path fill="#60422F" d="M135.555,23.863c0,0.894-0.724,1.618-1.619,1.618c-0.895,0-1.619-0.724-1.619-1.618v-0.128
		c-0.745,0.959-1.704,1.832-3.344,1.832c-2.45,0-3.876-1.618-3.876-4.238v-5.9c0-0.895,0.724-1.619,1.619-1.619
		c0.894,0,1.619,0.724,1.619,1.619v4.877c0,1.534,0.724,2.322,1.96,2.322c1.236,0,2.024-0.788,2.024-2.322v-4.877
		c0-0.895,0.724-1.619,1.619-1.619c0.894,0,1.619,0.724,1.619,1.619V23.863z"/>
	<path fill="#60422F" d="M139.344,15.428c0-0.895,0.724-1.619,1.618-1.619c0.895,0,1.619,0.724,1.619,1.619v0.127
		c0.746-0.958,1.704-1.832,3.344-1.832c2.45,0,3.876,1.619,3.876,4.239v5.9c0,0.894-0.724,1.618-1.619,1.618
		c-0.894,0-1.618-0.724-1.618-1.618v-4.878c0-1.534-0.724-2.322-1.96-2.322c-1.236,0-2.024,0.788-2.024,2.322v4.878
		c0,0.894-0.724,1.618-1.619,1.618c-0.894,0-1.618-0.724-1.618-1.618V15.428z"/>
	<path fill="#60422F" d="M164.989,23.863c0,0.894-0.724,1.618-1.619,1.618c-0.895,0-1.619-0.724-1.619-1.618v-0.149
		c-0.788,1.065-1.875,1.853-3.558,1.853c-2.662,0-5.197-2.087-5.197-5.9v-0.042c0-3.813,2.491-5.9,5.197-5.9
		c1.726,0,2.791,0.788,3.558,1.704v-4.133c0-0.895,0.724-1.618,1.619-1.618c0.895,0,1.619,0.723,1.619,1.618V23.863z
		 M156.234,19.624v0.042c0,1.896,1.278,3.153,2.791,3.153c1.512,0,2.769-1.257,2.769-3.153v-0.042c0-1.896-1.257-3.153-2.769-3.153
		C157.512,16.472,156.234,17.707,156.234,19.624z"/>
</g>
<g enable-background="new    ">
	<path fill="#60422F" d="M83.416,34.6c0-0.916,0.724-1.64,1.64-1.64h5.283c1.704,0,3.046,0.468,3.898,1.32
		c0.681,0.682,1.022,1.513,1.022,2.535v0.043c0,1.682-0.895,2.62-1.96,3.216c1.725,0.66,2.79,1.661,2.79,3.664v0.042
		c0,2.726-2.215,4.09-5.581,4.09h-5.453c-0.916,0-1.64-0.724-1.64-1.64V34.6z M89.636,38.987c1.448,0,2.364-0.468,2.364-1.576
		v-0.043c0-0.979-0.767-1.533-2.151-1.533h-3.237v3.152H89.636z M90.509,44.993c1.448,0,2.322-0.511,2.322-1.618v-0.043
		c0-1.001-0.746-1.619-2.428-1.619h-3.791v3.28H90.509z"/>
	<path fill="#60422F" d="M99.347,37.944c0-0.895,0.724-1.619,1.619-1.619c0.895,0,1.619,0.724,1.619,1.619v0.511
		c0.468-1.107,1.235-2.13,2.194-2.13c1.001,0,1.576,0.66,1.576,1.576c0,0.853-0.554,1.363-1.214,1.513
		c-1.64,0.383-2.556,1.64-2.556,3.94v3.025c0,0.894-0.724,1.618-1.619,1.618c-0.894,0-1.619-0.724-1.619-1.618V37.944z"/>
	<path fill="#60422F" d="M114.235,48.125c-3.429,0-5.964-2.407-5.964-5.9v-0.043c0-3.258,2.322-5.942,5.644-5.942
		c3.813,0,5.495,3.131,5.495,5.495c0,0.938-0.66,1.556-1.512,1.556h-6.412c0.32,1.47,1.342,2.236,2.791,2.236
		c0.895,0,1.64-0.277,2.3-0.766c0.235-0.171,0.447-0.256,0.788-0.256c0.724,0,1.257,0.554,1.257,1.278
		c0,0.426-0.192,0.745-0.426,0.959C117.196,47.592,115.897,48.125,114.235,48.125z M116.322,41.266
		c-0.192-1.448-1.044-2.428-2.407-2.428c-1.342,0-2.215,0.958-2.471,2.428H116.322z"/>
	<path fill="#60422F" d="M122.093,44.589v-0.043c0-2.492,1.896-3.642,4.601-3.642c1.15,0,1.981,0.192,2.791,0.469v-0.192
		c0-1.341-0.831-2.087-2.45-2.087c-0.895,0-1.619,0.128-2.237,0.32c-0.192,0.064-0.319,0.085-0.468,0.085
		c-0.745,0-1.342-0.575-1.342-1.321c0-0.575,0.362-1.064,0.873-1.256c1.022-0.384,2.13-0.597,3.642-0.597
		c1.768,0,3.046,0.468,3.855,1.278c0.852,0.852,1.235,2.108,1.235,3.642v5.197c0,0.874-0.703,1.555-1.576,1.555
		c-0.937,0-1.555-0.66-1.555-1.341v-0.022c-0.788,0.874-1.874,1.448-3.451,1.448C123.861,48.082,122.093,46.847,122.093,44.589z
		 M129.527,43.844v-0.576c-0.554-0.255-1.278-0.425-2.066-0.425c-1.384,0-2.236,0.554-2.236,1.576v0.042
		c0,0.874,0.724,1.385,1.768,1.385C128.504,45.846,129.527,45.015,129.527,43.844z"/>
	<path fill="#60422F" d="M136.277,33.811c0-0.895,0.724-1.618,1.619-1.618c0.894,0,1.618,0.723,1.618,1.618v7.072l4.047-3.834
		c0.468-0.447,0.852-0.724,1.427-0.724c0.873,0,1.427,0.703,1.427,1.448c0,0.554-0.298,0.98-0.745,1.405l-2.556,2.195l3.046,4.111
		c0.277,0.383,0.405,0.681,0.405,1.043c0,0.874-0.703,1.47-1.512,1.47c-0.639,0-1.023-0.213-1.406-0.745l-2.833-3.898l-1.299,1.172
		v1.854c0,0.894-0.724,1.618-1.618,1.618c-0.895,0-1.619-0.724-1.619-1.618V33.811z"/>
	<path fill="#60422F" d="M149.653,33.726c0-0.937,0.788-1.512,1.811-1.512c1.022,0,1.811,0.575,1.811,1.512v0.043
		c0,0.937-0.788,1.534-1.811,1.534c-1.023,0-1.811-0.597-1.811-1.534V33.726z M149.844,37.944c0-0.895,0.724-1.619,1.619-1.619
		c0.894,0,1.619,0.724,1.619,1.619v8.435c0,0.894-0.724,1.618-1.619,1.618c-0.895,0-1.619-0.724-1.619-1.618V37.944z"/>
	<path fill="#60422F" d="M157.022,37.944c0-0.895,0.724-1.619,1.618-1.619c0.895,0,1.619,0.724,1.619,1.619v0.127
		c0.746-0.958,1.704-1.832,3.344-1.832c2.45,0,3.876,1.619,3.876,4.239v5.9c0,0.894-0.724,1.618-1.619,1.618
		c-0.894,0-1.618-0.724-1.618-1.618v-4.878c0-1.534-0.724-2.322-1.959-2.322c-1.236,0-2.024,0.788-2.024,2.322v4.878
		c0,0.894-0.724,1.618-1.619,1.618c-0.894,0-1.618-0.724-1.618-1.618V37.944z"/>
	<path fill="#60422F" d="M172.122,50.531c-0.554-0.213-0.916-0.66-0.916-1.257c0-0.723,0.596-1.32,1.32-1.32
		c0.213,0,0.383,0.042,0.533,0.106c0.937,0.426,1.939,0.682,3.153,0.682c2.215,0,3.258-1.065,3.258-3.11v-0.554
		c-0.958,1.15-2.002,1.854-3.727,1.854c-2.663,0-5.07-1.939-5.07-5.325v-0.042c0-3.408,2.45-5.325,5.07-5.325
		c1.767,0,2.811,0.745,3.684,1.704v-0.021c0-0.874,0.724-1.598,1.619-1.598s1.619,0.724,1.619,1.619v7.349
		c0,2.044-0.49,3.536-1.448,4.494c-1.065,1.065-2.705,1.534-4.92,1.534C174.784,51.32,173.463,51.064,172.122,50.531z
		 M179.47,41.607v-0.042c0-1.555-1.214-2.641-2.79-2.641c-1.577,0-2.769,1.086-2.769,2.641v0.042c0,1.576,1.192,2.641,2.769,2.641
		C178.256,44.248,179.47,43.162,179.47,41.607z"/>
</g>
<g enable-background="new    ">
	<path fill="#60422F" d="M83.416,57.028c0-0.916,0.724-1.64,1.64-1.64h0.362c0.703,0,1.193,0.362,1.491,0.852l3.962,6.454
		l3.983-6.475c0.341-0.554,0.809-0.831,1.47-0.831h0.362c0.916,0,1.64,0.724,1.64,1.64v11.842c0,0.916-0.724,1.64-1.64,1.64
		c-0.894,0-1.618-0.745-1.618-1.64v-7.433l-2.876,4.43c-0.341,0.512-0.766,0.831-1.363,0.831c-0.596,0-1.022-0.319-1.363-0.831
		l-2.833-4.366v7.413c0,0.895-0.724,1.597-1.619,1.597c-0.895,0-1.598-0.702-1.598-1.597V57.028z"/>
	<path fill="#60422F" d="M112.83,68.893c0,0.894-0.724,1.618-1.619,1.618c-0.895,0-1.619-0.724-1.619-1.618v-0.128
		c-0.745,0.959-1.704,1.832-3.344,1.832c-2.45,0-3.876-1.618-3.876-4.238v-5.9c0-0.895,0.724-1.619,1.619-1.619
		c0.894,0,1.618,0.724,1.618,1.619v4.877c0,1.534,0.724,2.322,1.96,2.322c1.236,0,2.024-0.788,2.024-2.322v-4.877
		c0-0.895,0.724-1.619,1.619-1.619c0.894,0,1.619,0.724,1.619,1.619V68.893z"/>
	<path fill="#60422F" d="M116.321,69.297c-0.341-0.213-0.617-0.597-0.617-1.107c0-0.724,0.554-1.278,1.278-1.278
		c0.234,0,0.468,0.063,0.639,0.171c1.086,0.681,2.173,1.022,3.088,1.022c0.937,0,1.363-0.341,1.363-0.852V67.21
		c0-0.703-1.107-0.937-2.364-1.32c-1.597-0.469-3.408-1.215-3.408-3.429v-0.043c0-2.321,1.874-3.621,4.175-3.621
		c1.193,0,2.428,0.32,3.536,0.874c0.468,0.235,0.766,0.66,0.766,1.214c0,0.724-0.575,1.279-1.299,1.279
		c-0.234,0-0.384-0.043-0.596-0.149c-0.916-0.447-1.789-0.724-2.471-0.724c-0.788,0-1.193,0.341-1.193,0.788v0.042
		c0,0.639,1.086,0.937,2.322,1.363c1.597,0.533,3.451,1.299,3.451,3.386v0.043c0,2.535-1.896,3.684-4.366,3.684
		C119.218,70.596,117.706,70.192,116.321,69.297z"/>
	<path fill="#60422F" d="M128.206,56.325c0-0.895,0.724-1.618,1.618-1.618c0.895,0,1.619,0.723,1.619,1.618v4.26
		c0.746-0.958,1.704-1.832,3.344-1.832c2.45,0,3.876,1.619,3.876,4.239v5.9c0,0.894-0.724,1.618-1.619,1.618
		c-0.894,0-1.618-0.724-1.618-1.618v-4.878c0-1.534-0.724-2.322-1.96-2.322c-1.236,0-2.024,0.788-2.024,2.322v4.878
		c0,0.894-0.724,1.618-1.619,1.618c-0.894,0-1.618-0.724-1.618-1.618V56.325z"/>
	<path fill="#60422F" d="M142.369,60.458c0-0.895,0.724-1.619,1.619-1.619c0.895,0,1.619,0.724,1.619,1.619v0.511
		c0.468-1.107,1.235-2.13,2.194-2.13c1.001,0,1.576,0.66,1.576,1.576c0,0.853-0.554,1.363-1.214,1.513
		c-1.64,0.383-2.556,1.64-2.556,3.94v3.025c0,0.894-0.724,1.618-1.619,1.618c-0.894,0-1.619-0.724-1.619-1.618V60.458z"/>
	<path fill="#60422F" d="M151.293,64.739v-0.043c0-3.28,2.641-5.942,6.198-5.942c3.536,0,6.156,2.62,6.156,5.9v0.042
		c0,3.281-2.641,5.943-6.199,5.943C153.912,70.639,151.293,68.019,151.293,64.739z M160.452,64.739v-0.043
		c0-1.682-1.215-3.152-3.004-3.152c-1.853,0-2.96,1.426-2.96,3.11v0.042c0,1.683,1.215,3.153,3.003,3.153
		C159.344,67.849,160.452,66.421,160.452,64.739z"/>
	<path fill="#60422F" d="M166.329,64.739v-0.043c0-3.28,2.641-5.942,6.198-5.942c3.536,0,6.156,2.62,6.156,5.9v0.042
		c0,3.281-2.641,5.943-6.199,5.943C168.949,70.639,166.329,68.019,166.329,64.739z M175.488,64.739v-0.043
		c0-1.682-1.215-3.152-3.004-3.152c-1.853,0-2.96,1.426-2.96,3.11v0.042c0,1.683,1.215,3.153,3.003,3.153
		C174.381,67.849,175.488,66.421,175.488,64.739z"/>
	<path fill="#60422F" d="M181.918,60.458c0-0.895,0.724-1.619,1.619-1.619s1.619,0.724,1.619,1.619v0.127
		c0.745-0.958,1.725-1.832,3.365-1.832c1.492,0,2.62,0.66,3.216,1.811c1.002-1.172,2.194-1.811,3.749-1.811
		c2.406,0,3.855,1.448,3.855,4.196v5.943c0,0.894-0.724,1.618-1.619,1.618s-1.619-0.724-1.619-1.618v-4.878
		c0-1.534-0.681-2.322-1.895-2.322c-1.215,0-1.96,0.788-1.96,2.322v4.878c0,0.894-0.724,1.618-1.619,1.618s-1.619-0.724-1.619-1.618
		v-4.878c0-1.534-0.681-2.322-1.895-2.322c-1.215,0-1.96,0.788-1.96,2.322v4.878c0,0.894-0.724,1.618-1.619,1.618
		s-1.619-0.724-1.619-1.618V60.458z"/>
	<path fill="#60422F" d="M202.748,69.297c-0.341-0.213-0.617-0.597-0.617-1.107c0-0.724,0.554-1.278,1.278-1.278
		c0.234,0,0.468,0.063,0.638,0.171c1.086,0.681,2.173,1.022,3.088,1.022c0.938,0,1.364-0.341,1.364-0.852V67.21
		c0-0.703-1.108-0.937-2.364-1.32c-1.598-0.469-3.408-1.215-3.408-3.429v-0.043c0-2.321,1.874-3.621,4.175-3.621
		c1.193,0,2.428,0.32,3.536,0.874c0.468,0.235,0.766,0.66,0.766,1.214c0,0.724-0.575,1.279-1.299,1.279
		c-0.235,0-0.384-0.043-0.597-0.149c-0.916-0.447-1.789-0.724-2.471-0.724c-0.788,0-1.193,0.341-1.193,0.788v0.042
		c0,0.639,1.086,0.937,2.322,1.363c1.597,0.533,3.451,1.299,3.451,3.386v0.043c0,2.535-1.897,3.684-4.366,3.684
		C205.645,70.596,204.133,70.192,202.748,69.297z"/>
</g>
<g enable-background="new    ">
	<path fill="#60422F" d="M82.613,80.777c0-0.373,0.296-0.68,0.679-0.68h0.143c0.296,0,0.493,0.155,0.624,0.362l2.323,3.639
		l2.334-3.649c0.142-0.23,0.34-0.352,0.613-0.352h0.142c0.384,0,0.679,0.308,0.679,0.68v6.421c0,0.373-0.296,0.668-0.679,0.668
		c-0.362,0-0.668-0.306-0.668-0.668v-4.602l-1.874,2.816c-0.142,0.22-0.318,0.35-0.57,0.35c-0.241,0-0.417-0.13-0.559-0.35
		l-1.863-2.795v4.591c0,0.373-0.296,0.657-0.668,0.657c-0.373,0-0.658-0.285-0.658-0.657V80.777z"/>
	<path fill="#60422F" d="M98.005,87.209c0,0.362-0.296,0.657-0.668,0.657c-0.362,0-0.668-0.285-0.668-0.657v-0.295
		c-0.373,0.548-0.91,1.02-1.808,1.02c-1.304,0-2.06-0.877-2.06-2.225v-3.08c0-0.373,0.296-0.668,0.657-0.668
		c0.373,0,0.668,0.295,0.668,0.668v2.686c0,0.898,0.45,1.403,1.238,1.403c0.767,0,1.304-0.526,1.304-1.426v-2.663
		c0-0.373,0.296-0.668,0.668-0.668c0.362,0,0.668,0.295,0.668,0.668V87.209z"/>
	<path fill="#60422F" d="M100.335,87.232c-0.143-0.077-0.252-0.241-0.252-0.461c0-0.295,0.23-0.538,0.537-0.538
		c0.109,0,0.208,0.033,0.285,0.077c0.559,0.373,1.14,0.559,1.666,0.559c0.57,0,0.899-0.241,0.899-0.624v-0.023
		c0-0.448-0.614-0.603-1.293-0.81c-0.855-0.241-1.808-0.592-1.808-1.698v-0.023c0-1.095,0.91-1.765,2.061-1.765
		c0.613,0,1.26,0.176,1.819,0.471c0.186,0.1,0.318,0.274,0.318,0.504c0,0.308-0.241,0.538-0.548,0.538
		c-0.109,0-0.175-0.023-0.263-0.067c-0.471-0.241-0.954-0.394-1.359-0.394c-0.515,0-0.811,0.241-0.811,0.57v0.023
		c0,0.427,0.625,0.601,1.304,0.821c0.844,0.264,1.797,0.647,1.797,1.688v0.023c0,1.216-0.943,1.819-2.148,1.819
		C101.804,87.923,101.004,87.692,100.335,87.232z"/>
	<path fill="#60422F" d="M106.94,80.415c0-0.362,0.285-0.657,0.658-0.657c0.372,0,0.668,0.295,0.668,0.657v2.498
		c0.373-0.536,0.909-1.007,1.808-1.007c1.304,0,2.061,0.877,2.061,2.213v3.09c0,0.373-0.285,0.657-0.658,0.657
		c-0.372,0-0.668-0.285-0.668-0.657v-2.684c0-0.898-0.449-1.413-1.238-1.413c-0.767,0-1.304,0.536-1.304,1.434v2.663
		c0,0.373-0.296,0.657-0.668,0.657c-0.362,0-0.658-0.285-0.658-0.657V80.415z"/>
	<path fill="#60422F" d="M114.629,82.628c0-0.373,0.285-0.668,0.657-0.668c0.373,0,0.669,0.295,0.669,0.668v0.592
		c0.307-0.722,0.877-1.271,1.457-1.271c0.417,0,0.658,0.274,0.658,0.657c0,0.35-0.23,0.58-0.526,0.636
		c-0.943,0.163-1.589,0.886-1.589,2.257v1.709c0,0.362-0.296,0.657-0.669,0.657c-0.361,0-0.657-0.285-0.657-0.657V82.628z"/>
	<path fill="#60422F" d="M119.537,84.952v-0.021c0-1.656,1.315-3.025,3.09-3.025c1.775,0,3.08,1.348,3.08,3.002v0.023
		c0,1.644-1.315,3.013-3.101,3.013C120.841,87.944,119.537,86.596,119.537,84.952z M124.38,84.952v-0.021
		c0-1.02-0.734-1.863-1.775-1.863c-1.063,0-1.743,0.833-1.743,1.84v0.023c0,1.007,0.734,1.851,1.764,1.851
		C123.701,86.782,124.38,85.949,124.38,84.952z"/>
	<path fill="#60422F" d="M127.631,84.952v-0.021c0-1.656,1.315-3.025,3.09-3.025c1.775,0,3.08,1.348,3.08,3.002v0.023
		c0,1.644-1.315,3.013-3.101,3.013C128.935,87.944,127.631,86.596,127.631,84.952z M132.474,84.952v-0.021
		c0-1.02-0.734-1.863-1.775-1.863c-1.063,0-1.742,0.833-1.742,1.84v0.023c0,1.007,0.734,1.851,1.764,1.851
		C131.795,86.782,132.474,85.949,132.474,84.952z"/>
	<path fill="#60422F" d="M136.043,82.628c0-0.373,0.285-0.668,0.657-0.668c0.373,0,0.669,0.295,0.669,0.668v0.274
		c0.373-0.515,0.877-0.997,1.764-0.997c0.833,0,1.424,0.406,1.731,1.02c0.46-0.613,1.074-1.02,1.951-1.02
		c1.26,0,2.027,0.8,2.027,2.213v3.09c0,0.373-0.285,0.657-0.657,0.657c-0.373,0-0.668-0.285-0.668-0.657v-2.684
		c0-0.921-0.428-1.413-1.173-1.413c-0.723,0-1.238,0.503-1.238,1.434v2.663c0,0.373-0.296,0.657-0.657,0.657
		c-0.373,0-0.668-0.285-0.668-0.657v-2.695c0-0.9-0.439-1.403-1.172-1.403c-0.734,0-1.238,0.547-1.238,1.434v2.663
		c0,0.373-0.296,0.657-0.669,0.657c-0.361,0-0.657-0.285-0.657-0.657V82.628z"/>
	<path fill="#60422F" d="M147.128,87.232c-0.142-0.077-0.252-0.241-0.252-0.461c0-0.295,0.23-0.538,0.537-0.538
		c0.109,0,0.208,0.033,0.285,0.077c0.559,0.373,1.14,0.559,1.666,0.559c0.57,0,0.899-0.241,0.899-0.624v-0.023
		c0-0.448-0.614-0.603-1.293-0.81c-0.855-0.241-1.808-0.592-1.808-1.698v-0.023c0-1.095,0.91-1.765,2.061-1.765
		c0.613,0,1.26,0.176,1.819,0.471c0.186,0.1,0.318,0.274,0.318,0.504c0,0.308-0.241,0.538-0.548,0.538
		c-0.11,0-0.176-0.023-0.263-0.067c-0.471-0.241-0.954-0.394-1.359-0.394c-0.515,0-0.811,0.241-0.811,0.57v0.023
		c0,0.427,0.625,0.601,1.304,0.821c0.844,0.264,1.797,0.647,1.797,1.688v0.023c0,1.216-0.943,1.819-2.148,1.819
		C148.596,87.923,147.796,87.692,147.128,87.232z"/>
	<path fill="#60422F" d="M158.212,83.166h-0.23c-0.306,0-0.559-0.241-0.559-0.548c0-0.306,0.253-0.559,0.559-0.559h0.23v-0.427
		c0-0.636,0.165-1.118,0.471-1.424c0.308-0.308,0.735-0.461,1.304-0.461c0.264,0,0.483,0.021,0.669,0.054
		c0.241,0.033,0.46,0.251,0.46,0.548c0,0.306-0.251,0.559-0.559,0.547c-0.076-0.011-0.186-0.021-0.273-0.021
		c-0.504,0-0.767,0.274-0.767,0.877v0.316h1.03c0.318,0,0.559,0.243,0.559,0.548c0,0.308-0.252,0.548-0.559,0.548h-1.008v4.043
		c0,0.362-0.296,0.657-0.669,0.657c-0.361,0-0.657-0.295-0.657-0.657V83.166z"/>
	<path fill="#60422F" d="M162.933,82.628c0-0.373,0.286-0.668,0.657-0.668c0.373,0,0.669,0.295,0.669,0.668v0.592
		c0.307-0.722,0.877-1.271,1.457-1.271c0.417,0,0.657,0.274,0.657,0.657c0,0.35-0.23,0.58-0.526,0.636
		c-0.942,0.163-1.589,0.886-1.589,2.257v1.709c0,0.362-0.296,0.657-0.669,0.657c-0.361,0-0.657-0.285-0.657-0.657V82.628z"/>
	<path fill="#60422F" d="M167.84,84.952v-0.021c0-1.656,1.315-3.025,3.09-3.025s3.08,1.348,3.08,3.002v0.023
		c0,1.644-1.315,3.013-3.101,3.013C169.144,87.944,167.84,86.596,167.84,84.952z M172.684,84.952v-0.021
		c0-1.02-0.734-1.863-1.775-1.863c-1.063,0-1.743,0.833-1.743,1.84v0.023c0,1.007,0.734,1.851,1.764,1.851
		C172.004,86.782,172.684,85.949,172.684,84.952z"/>
	<path fill="#60422F" d="M176.252,82.628c0-0.373,0.286-0.668,0.657-0.668c0.373,0,0.669,0.295,0.669,0.668v0.274
		c0.373-0.515,0.877-0.997,1.765-0.997c0.832,0,1.424,0.406,1.731,1.02c0.46-0.613,1.074-1.02,1.95-1.02
		c1.259,0,2.028,0.8,2.028,2.213v3.09c0,0.373-0.285,0.657-0.657,0.657c-0.373,0-0.669-0.285-0.669-0.657v-2.684
		c0-0.921-0.428-1.413-1.173-1.413c-0.722,0-1.238,0.503-1.238,1.434v2.663c0,0.373-0.296,0.657-0.657,0.657
		c-0.373,0-0.669-0.285-0.669-0.657v-2.695c0-0.9-0.439-1.403-1.172-1.403s-1.238,0.547-1.238,1.434v2.663
		c0,0.373-0.296,0.657-0.669,0.657c-0.361,0-0.657-0.285-0.657-0.657V82.628z"/>
	<path fill="#60422F" d="M191.554,83.999v-0.023c0-2.18,1.633-3.967,3.956-3.967c1.184,0,1.962,0.352,2.631,0.867
		c0.142,0.109,0.263,0.295,0.263,0.536c0,0.373-0.295,0.657-0.668,0.657c-0.186,0-0.318-0.065-0.406-0.13
		c-0.526-0.429-1.095-0.691-1.83-0.691c-1.457,0-2.531,1.206-2.531,2.707v0.021c0,1.501,1.063,2.718,2.531,2.718
		c0.81,0,1.359-0.262,1.918-0.733c0.098-0.088,0.241-0.155,0.406-0.155c0.339,0,0.635,0.285,0.635,0.626
		c0,0.207-0.098,0.373-0.219,0.482c-0.723,0.636-1.545,1.03-2.783,1.03C193.219,87.944,191.554,86.202,191.554,83.999z"/>
	<path fill="#60422F" d="M200.294,84.952v-0.021c0-1.656,1.315-3.025,3.09-3.025s3.08,1.348,3.08,3.002v0.023
		c0,1.644-1.315,3.013-3.101,3.013C201.599,87.944,200.294,86.596,200.294,84.952z M205.138,84.952v-0.021
		c0-1.02-0.734-1.863-1.775-1.863c-1.063,0-1.743,0.833-1.743,1.84v0.023c0,1.007,0.734,1.851,1.764,1.851
		C204.459,86.782,205.138,85.949,205.138,84.952z"/>
	<path fill="#60422F" d="M209.003,83.166h-0.23c-0.307,0-0.559-0.241-0.559-0.548c0-0.306,0.252-0.559,0.559-0.559h0.23v-0.427
		c0-0.636,0.164-1.118,0.471-1.424c0.307-0.308,0.735-0.461,1.304-0.461c0.263,0,0.482,0.021,0.668,0.054
		c0.241,0.033,0.461,0.251,0.461,0.548c0,0.306-0.252,0.559-0.559,0.547c-0.076-0.011-0.186-0.021-0.274-0.021
		c-0.504,0-0.766,0.274-0.766,0.877v0.316h1.03c0.317,0,0.559,0.243,0.559,0.548c0,0.308-0.252,0.548-0.559,0.548h-1.009v4.043
		c0,0.362-0.295,0.657-0.668,0.657c-0.362,0-0.657-0.295-0.657-0.657V83.166z M213.123,83.166h-0.23
		c-0.307,0-0.559-0.241-0.559-0.548c0-0.306,0.252-0.559,0.559-0.559h0.23v-0.427c0-0.636,0.164-1.118,0.471-1.424
		c0.308-0.308,0.735-0.461,1.304-0.461c0.263,0,0.482,0.021,0.668,0.054c0.242,0.033,0.461,0.251,0.461,0.548
		c0,0.306-0.251,0.559-0.559,0.547c-0.076-0.011-0.186-0.021-0.274-0.021c-0.504,0-0.766,0.274-0.766,0.877v0.316h1.03
		c0.318,0,0.559,0.243,0.559,0.548c0,0.308-0.252,0.548-0.559,0.548h-1.008v4.043c0,0.362-0.296,0.657-0.669,0.657
		c-0.362,0-0.657-0.295-0.657-0.657V83.166z"/>
	<path fill="#60422F" d="M220.384,87.944c-1.677,0-2.971-1.216-2.971-3.002v-0.023c0-1.654,1.172-3.013,2.828-3.013
		c1.84,0,2.75,1.512,2.75,2.849c0,0.373-0.285,0.635-0.625,0.635h-3.627c0.143,0.944,0.811,1.47,1.666,1.47
		c0.559,0,0.998-0.197,1.37-0.504c0.099-0.077,0.186-0.121,0.34-0.121c0.295,0,0.526,0.23,0.526,0.538
		c0,0.163-0.076,0.308-0.176,0.406C221.94,87.649,221.283,87.944,220.384,87.944z M221.699,84.514
		c-0.088-0.856-0.592-1.524-1.469-1.524c-0.811,0-1.381,0.624-1.501,1.524H221.699z"/>
	<path fill="#60422F" d="M227.897,87.944c-1.676,0-2.969-1.216-2.969-3.002v-0.023c0-1.654,1.172-3.013,2.827-3.013
		c1.841,0,2.751,1.512,2.751,2.849c0,0.373-0.285,0.635-0.624,0.635h-3.628c0.142,0.944,0.811,1.47,1.666,1.47
		c0.559,0,0.997-0.197,1.369-0.504c0.098-0.077,0.186-0.121,0.339-0.121c0.297,0,0.526,0.23,0.526,0.538
		c0,0.163-0.076,0.308-0.175,0.406C229.454,87.649,228.796,87.944,227.897,87.944z M229.213,84.514
		c-0.088-0.856-0.592-1.524-1.469-1.524c-0.81,0-1.381,0.624-1.501,1.524H229.213z"/>
	<path fill="#60422F" d="M236.757,83.999v-0.023c0-2.148,1.644-3.967,3.957-3.967c1.15,0,1.918,0.274,2.619,0.779
		c0.132,0.098,0.274,0.285,0.274,0.548c0,0.36-0.296,0.668-0.669,0.668c-0.175,0-0.307-0.077-0.417-0.153
		c-0.493-0.362-1.03-0.603-1.862-0.603c-1.414,0-2.488,1.238-2.488,2.707v0.021c0,1.579,1.042,2.74,2.608,2.74
		c0.724,0,1.382-0.23,1.853-0.582v-1.434h-1.513c-0.329,0-0.602-0.253-0.602-0.582c0-0.329,0.273-0.591,0.602-0.591h2.137
		c0.384,0,0.68,0.295,0.68,0.679v2.05c0,0.383-0.154,0.657-0.471,0.854c-0.657,0.439-1.579,0.833-2.729,0.833
		C238.335,87.944,236.757,86.234,236.757,83.999z"/>
	<path fill="#60422F" d="M246.429,82.628c0-0.373,0.286-0.668,0.657-0.668c0.373,0,0.669,0.295,0.669,0.668v0.592
		c0.307-0.722,0.877-1.271,1.457-1.271c0.417,0,0.657,0.274,0.657,0.657c0,0.35-0.23,0.58-0.526,0.636
		c-0.942,0.163-1.589,0.886-1.589,2.257v1.709c0,0.362-0.296,0.657-0.669,0.657c-0.361,0-0.657-0.285-0.657-0.657V82.628z"/>
	<path fill="#60422F" d="M251.336,84.952v-0.021c0-1.656,1.315-3.025,3.09-3.025c1.775,0,3.08,1.348,3.08,3.002v0.023
		c0,1.644-1.315,3.013-3.101,3.013C252.64,87.944,251.336,86.596,251.336,84.952z M256.18,84.952v-0.021
		c0-1.02-0.734-1.863-1.775-1.863c-1.063,0-1.743,0.833-1.743,1.84v0.023c0,1.007,0.734,1.851,1.764,1.851
		C255.5,86.782,256.18,85.949,256.18,84.952z"/>
	<path fill="#60422F" d="M264.889,87.209c0,0.362-0.296,0.657-0.669,0.657c-0.361,0-0.669-0.285-0.669-0.657v-0.295
		c-0.373,0.548-0.909,1.02-1.808,1.02c-1.304,0-2.06-0.877-2.06-2.225v-3.08c0-0.373,0.296-0.668,0.657-0.668
		c0.373,0,0.669,0.295,0.669,0.668v2.686c0,0.898,0.449,1.403,1.238,1.403c0.768,0,1.304-0.526,1.304-1.426v-2.663
		c0-0.373,0.296-0.668,0.669-0.668c0.361,0,0.669,0.295,0.669,0.668V87.209z"/>
	<path fill="#60422F" d="M267.438,82.628c0-0.373,0.285-0.668,0.657-0.668s0.669,0.295,0.669,0.668v0.285
		c0.373-0.536,0.91-1.007,1.808-1.007c1.304,0,2.06,0.877,2.06,2.213v3.09c0,0.373-0.285,0.657-0.657,0.657
		s-0.668-0.285-0.668-0.657v-2.684c0-0.898-0.45-1.413-1.239-1.413c-0.766,0-1.303,0.536-1.303,1.434v2.663
		c0,0.373-0.296,0.657-0.669,0.657c-0.361,0-0.657-0.285-0.657-0.657V82.628z"/>
	<path fill="#60422F" d="M280.815,87.209c0,0.373-0.296,0.657-0.657,0.657c-0.373,0-0.669-0.285-0.669-0.657v-0.36
		c-0.427,0.603-1.03,1.085-1.972,1.085c-1.36,0-2.685-1.085-2.685-3.002v-0.023c0-1.918,1.304-3.002,2.685-3.002
		c0.954,0,1.557,0.471,1.972,1.02v-2.51c0-0.373,0.296-0.657,0.658-0.657c0.372,0,0.668,0.285,0.668,0.657V87.209z M276.168,84.908
		v0.023c0,1.118,0.767,1.851,1.666,1.851c0.888,0,1.677-0.745,1.677-1.851v-0.023c0-1.118-0.789-1.851-1.677-1.851
		C276.924,83.057,276.168,83.758,276.168,84.908z"/>
	<path fill="#60422F" d="M283.155,87.232c-0.142-0.077-0.252-0.241-0.252-0.461c0-0.295,0.23-0.538,0.538-0.538
		c0.109,0,0.207,0.033,0.285,0.077c0.559,0.373,1.139,0.559,1.666,0.559c0.57,0,0.899-0.241,0.899-0.624v-0.023
		c0-0.448-0.614-0.603-1.294-0.81c-0.854-0.241-1.809-0.592-1.809-1.698v-0.023c0-1.095,0.911-1.765,2.061-1.765
		c0.613,0,1.259,0.176,1.818,0.471c0.186,0.1,0.318,0.274,0.318,0.504c0,0.308-0.241,0.538-0.548,0.538
		c-0.11,0-0.176-0.023-0.263-0.067c-0.471-0.241-0.954-0.394-1.359-0.394c-0.515,0-0.812,0.241-0.812,0.57v0.023
		c0,0.427,0.626,0.601,1.304,0.821c0.844,0.264,1.798,0.647,1.798,1.688v0.023c0,1.216-0.943,1.819-2.148,1.819
		C284.624,87.923,283.824,87.692,283.155,87.232z"/>
</g>
<g>
	<g>
		<g>
			<path fill="#60422F" d="M34.7,10.684c4.088-0.018,8.238,0.539,12.44,1.614c4.451,1.273,8.561,3.213,12.237,6.022
				c3.882,2.966,6.906,6.611,8.699,11.205c0.562,1.442,0.506,2.369-0.209,2.831c-0.187,0.121-0.418,0.21-0.696,0.268
				c-0.372,0.078-0.825,0.101-1.363,0.069c-0.195-0.012-0.392-0.016-0.583-0.052c-1.583-0.298-3.182-0.539-4.746-0.918
				c0,0-7.947-2.356-21.91-2.629c-0.512-0.01-2.056-1.831-3.874-1.882c-1.778-0.05-3.352,1.856-3.874,1.858
				c-7.514,0.028-13.574,0.705-21.902,2.653c-1.564,0.378-3.162,0.619-4.746,0.918c-0.191,0.036-0.388,0.041-0.583,0.052
				c-2.472,0.143-3.174-0.845-2.268-3.169c1.793-4.595,4.817-8.239,8.699-11.205c3.676-2.809,7.786-4.749,12.237-6.022
				C26.463,11.223,30.613,10.666,34.7,10.684"/>
			<g>
				<g>
					<path fill="#60422F" d="M46.267,38.878c-0.807,0-1.516-0.59-1.64-1.413c-0.136-0.906-2.711-1.576-1.804-1.713
						c6.733-1.014,16.524-3.142,22.796-5.977c0.834-0.378,1.819-0.006,2.196,0.829c0.378,0.835,0.006,1.819-0.829,2.197
						c-6.549,2.96-13.436,4.999-20.471,6.058C46.433,38.873,46.35,38.878,46.267,38.878z"/>
				</g>
			</g>
			<g>
				<g>
					<path fill="#60422F" d="M23.378,38.92c-0.078,0-0.157-0.005-0.237-0.017c-12.759-1.82-20.991-5.959-21.334-6.134
						c-0.817-0.416-1.142-1.416-0.726-2.233c0.416-0.816,1.416-1.141,2.232-0.726l0,0c0.08,0.041,9.547,4.356,21.723,6.093
						c0.907,0.13,0.112,0.684-0.017,1.591C24.901,38.322,24.191,38.92,23.378,38.92z"/>
				</g>
			</g>
		</g>
		<path fill="#60422F" d="M51.954,49.259c2.144,8.384,1.54,16.488-2.626,24.178c-2.075,3.829-4.921,6.981-8.864,8.968
			c-5.74,2.893-11.301,2.412-16.583-1.175c-3.439-2.336-5.891-5.546-7.569-9.304c-3.784-8.48-3.868-17.083-0.459-25.686
			c1.8-4.542,4.636-8.34,8.787-11.053c1.594-1.041,3.32-1.782,5.17-2.236c1.077-0.265,1.903,0.135,2.536,0.993
			c0.838,1.136,1.204,2.461,1.463,3.816c1.052,5.49,0.703,10.926-0.614,16.334c-0.853,3.504-1.714,7.009-2.425,10.544
			c-0.702,3.487-0.714,7.021-0.245,10.55c0.104,0.777,0.355,1.501,0.917,2.075c0.77,0.787,1.64,0.596,1.986-0.442
			c0.097-0.292,0.154-0.608,0.166-0.914c0.179-4.793,1.203-9.433,2.532-14.019c1.076-3.715,2.055-7.453,2.25-11.344
			c0.191-3.806-0.081-7.57-0.979-11.285c-0.283-1.173-0.464-2.371-0.688-3.557c-0.027-0.143-0.031-0.291-0.04-0.437
			c-0.107-1.853,0.634-2.38,2.375-1.7c3.444,1.344,6.176,3.611,8.399,6.52C49.546,42.842,51,45.922,51.954,49.259z"/>
	</g>
	<path fill="#60422F" d="M59.157,31.383c0,0,1.415,0.321,0.036,0.745c-0.918,0.283,1.549-0.22,1.549-0.22l-0.541-1.115
		L59.157,31.383z"/>
	<path fill="#60422F" d="M59.357,30.956"/>
	<path fill="#60422F" d="M9.816,31.511c0,0-1.415,0.321-0.036,0.745c0.918,0.283-1.549-0.22-1.549-0.22l0.541-1.115L9.816,31.511z"
		/>
</g>
</svg>
